<?xml version="1.0" encoding="UTF-8"?>
<svg version="1.1" xmlns="http://www.w3.org/2000/svg" width="280" height="280">
<path d="M0 0 C0.75461517 0.00248749 1.50923035 0.00497498 2.28671265 0.00753784 C13.20335528 0.06325789 23.75247729 0.26149057 34.3125 3.3125 C35.12396484 3.54356445 35.93542969 3.77462891 36.77148438 4.01269531 C57.42294464 10.06203611 75.8730551 19.30301829 92.3125 33.3125 C93.25996094 34.11300781 94.20742187 34.91351563 95.18359375 35.73828125 C107.69041426 46.71630966 117.4515107 59.67439676 125.3125 74.3125 C125.63057617 74.90466309 125.94865234 75.49682617 126.27636719 76.10693359 C131.80053279 86.62709223 135.44787973 97.79928096 138.3125 109.3125 C138.50972656 110.09496094 138.70695312 110.87742187 138.91015625 111.68359375 C140.73954854 120.11186538 140.68470643 128.60412013 140.68310547 137.18847656 C140.68744554 139.77998288 140.72377226 142.36973456 140.76171875 144.9609375 C140.86433596 160.07304946 138.64485695 174.7938083 133.125 188.9375 C132.83165771 189.70835937 132.53831543 190.47921875 132.23608398 191.2734375 C127.27233309 203.90797057 120.82958525 215.72034307 112.3125 226.3125 C111.90805664 226.82232422 111.50361328 227.33214844 111.08691406 227.85742188 C87.79207162 257.0592334 54.44158931 275.65310602 17.3125 280.3125 C-0.85190968 281.20599325 -19.10531472 281.39179797 -36.6875 276.3125 C-37.42210449 276.11414551 -38.15670898 275.91579102 -38.91357422 275.71142578 C-73.59132179 266.204353 -103.76598591 242.25905991 -121.85351562 211.31787109 C-139.60660934 179.63506308 -145.99645157 140.04440216 -136.37646484 104.65527344 C-129.49289384 81.24820491 -118.61137115 60.95771647 -101.6875 43.3125 C-100.81867188 42.36890625 -99.94984375 41.4253125 -99.0546875 40.453125 C-73.56838324 13.30052785 -36.76669504 -0.19327254 0 0 Z M-91.34228516 59.76757812 C-95.56761033 64.62018387 -99.16565631 69.93869256 -102.6875 75.3125 C-103.32558594 76.27800781 -103.96367188 77.24351563 -104.62109375 78.23828125 C-120.94647876 104.52615066 -125.32527176 137.18193582 -118.6484375 167.16796875 C-110.63242935 200.69431353 -90.29292081 226.68217514 -61.65625 245.28125 C-34.53591658 261.90338984 -1.37274872 266.01602725 29.3684082 258.79101562 C50.42576156 253.45490312 68.73872093 243.49007725 84.3125 228.3125 C85.158125 227.508125 86.00375 226.70375 86.875 225.875 C87.679375 225.029375 88.48375 224.18375 89.3125 223.3125 C89.96605469 222.6421875 90.61960938 221.971875 91.29296875 221.28125 C113.19475892 198.06007488 123.20793799 166.97892508 122.5625 135.40625 C121.4270212 105.4750288 108.91355764 77.80748913 88.3125 56.3125 C87.1059375 55.0440625 87.1059375 55.0440625 85.875 53.75 C85.029375 52.945625 84.18375 52.14125 83.3125 51.3125 C82.37664062 50.36697266 82.37664062 50.36697266 81.421875 49.40234375 C60.2023002 28.9406109 30.00293988 18.76649855 0.875 18.0625 C-34.85118072 18.96763424 -67.07157938 33.40502284 -91.34228516 59.76757812 Z " fill="#FFFFFF" transform="translate(139.6875,-0.3125)"/>
<path d="M0 0 C4.62 0 9.24 0 14 0 C15.72978365 12.97337735 16.93360467 25.95637349 18 39 C19.72191489 35.65708832 20.95796193 32.32891676 22.125 28.75 C22.74375 26.8525 23.3625 24.955 24 23 C29.28 23 34.56 23 40 23 C42.15332453 28.63965948 44.08542215 34.25626646 46 40 C47.32 26.8 48.64 13.6 50 0 C54.62 0 59.24 0 64 0 C65.49383494 2.98766989 64.76382303 5.35056537 64.37915039 8.65283203 C64.30126785 9.33587402 64.22338531 10.01891602 64.1431427 10.72265625 C63.88372271 12.98507902 63.61571989 15.24639894 63.34765625 17.5078125 C63.1663371 19.07431032 62.98555259 20.64087011 62.80528259 22.20748901 C62.3289269 26.33451828 61.8452939 30.46066359 61.36016846 34.58666992 C60.86659515 38.79555383 60.37987041 43.00522886 59.89257812 47.21484375 C58.93510686 55.47735735 57.96931878 63.73886791 57 72 C52.05 72 47.1 72 42 72 C39.26502413 65.9998837 37.27292947 59.85306387 35.3125 53.5625 C34.99216797 52.54478516 34.67183594 51.52707031 34.34179688 50.47851562 C33.55797635 47.98666828 32.77746904 45.49383484 32 43 C31.76289307 43.80743652 31.52578613 44.61487305 31.28149414 45.44677734 C30.40148731 48.44022375 29.51979893 51.43316814 28.63696289 54.42578125 C28.25510161 55.72148054 27.87391266 57.01737817 27.4934082 58.31347656 C26.94659085 60.17564988 26.39716008 62.03705516 25.84765625 63.8984375 C25.51773682 65.01911621 25.18781738 66.13979492 24.84790039 67.29443359 C24 70 24 70 23 72 C20.52076199 72.02685095 18.0418116 72.04676547 15.5625 72.0625 C14.85544922 72.07087891 14.14839844 72.07925781 13.41992188 72.08789062 C11.61306441 72.09653588 9.80612397 72.05220011 8 72 C6.21631164 70.21631164 6.50969123 67.54608502 6.24389648 65.12255859 C6.10382675 63.86389984 5.96375702 62.60524109 5.81944275 61.30844116 C5.66978843 59.92179535 5.52034404 58.53512686 5.37109375 57.1484375 C5.21585674 55.7317101 5.06034046 54.31501328 4.90455627 52.89834595 C4.57815568 49.92097489 4.25488956 46.94328448 3.93383789 43.96533203 C3.52357618 40.16185985 3.10608382 36.35922478 2.68624783 32.55679893 C2.36345023 29.62645494 2.04434155 26.69571813 1.72633553 23.76485062 C1.57391809 22.36380921 1.42042377 20.9628845 1.2658062 19.5620842 C1.04907615 17.59306248 0.83779507 15.62344336 0.62670898 13.65380859 C0.50537094 12.53541595 0.3840329 11.41702332 0.25901794 10.26473999 C-0.01167917 6.85279227 0 3.42266916 0 0 Z " fill="#FFFFFF" transform="translate(176,104)"/>
<path d="M0 0 C0.80086533 -0.00570007 1.60173065 -0.01140015 2.42686462 -0.01727295 C4.1292081 -0.02674276 5.83157007 -0.03326476 7.53393555 -0.03710938 C10.11736108 -0.04674453 12.69996696 -0.0777183 15.28320312 -0.109375 C16.93879737 -0.11591207 18.5943973 -0.12115977 20.25 -0.125 C21.0149025 -0.1373468 21.77980499 -0.1496936 22.56788635 -0.16241455 C28.79021506 -0.13707473 34.34732179 1.0052851 39.33203125 5 C39.87085938 5.64453125 40.4096875 6.2890625 40.96484375 6.953125 C41.79628906 7.90445313 41.79628906 7.90445313 42.64453125 8.875 C47.61029497 16.87390588 47.05136247 27.9532533 45.66015625 36.99609375 C44.47197927 41.25739514 42.64940444 43.88623014 39.46875 46.94921875 C38.83654541 47.56337646 38.20434082 48.17753418 37.55297852 48.81030273 C36.82872681 49.49974976 36.82872681 49.49974976 36.08984375 50.203125 C36.42306641 50.76298096 36.75628906 51.32283691 37.09960938 51.8996582 C38.60313586 54.43436203 40.09657455 56.97486598 41.58984375 59.515625 C42.11449219 60.39669922 42.63914063 61.27777344 43.1796875 62.18554688 C43.67597656 63.03310547 44.17226562 63.88066406 44.68359375 64.75390625 C45.14443359 65.53419189 45.60527344 66.31447754 46.08007812 67.1184082 C47.08984375 69.203125 47.08984375 69.203125 47.08984375 72.203125 C41.78865266 73.34051983 36.21579728 74.46461136 31.08984375 72.203125 C27.97788362 68.63393958 26.19932166 64.3272049 24.19873047 60.07373047 C22.03517444 55.42945691 22.03517444 55.42945691 18.26513672 52.20507812 C14.01677986 51.15118935 10.47640547 51.72538065 6.08984375 52.203125 C6.08984375 58.803125 6.08984375 65.403125 6.08984375 72.203125 C-4.75 72.30078125 -4.75 72.30078125 -7.91015625 72.203125 C-9.78001446 70.33326679 -9.03794973 67.17164879 -9.03955078 64.6796875 C-9.0413031 63.99839783 -9.04305542 63.31710815 -9.04486084 62.61517334 C-9.04927867 60.35279833 -9.04634163 58.09050087 -9.04296875 55.828125 C-9.04364181 54.2625324 -9.04461185 52.6969399 -9.04586792 51.13134766 C-9.0473448 47.84601855 -9.04519066 44.56071658 -9.04052734 41.27539062 C-9.03483005 37.05491984 -9.03810911 32.83451264 -9.04409981 28.61404419 C-9.04770569 25.37995928 -9.04656671 22.14588955 -9.04397202 18.9118042 C-9.04330282 17.35520419 -9.04413091 15.79860282 -9.04645157 14.24200439 C-9.04897855 12.07015304 -9.0451369 9.89840604 -9.03955078 7.7265625 C-9.03875519 6.48825684 -9.03795959 5.24995117 -9.03713989 3.97412109 C-8.78332917 -1.56445458 -4.4815801 0.02444725 0 0 Z M6.08984375 13.203125 C6.08984375 21.783125 6.08984375 30.363125 6.08984375 39.203125 C9.12171875 39.265 12.15359375 39.326875 15.27734375 39.390625 C16.22375732 39.41793701 17.1701709 39.44524902 18.14526367 39.47338867 C22.90940323 39.52041818 26.30244837 39.44946389 30.08984375 36.203125 C32.60996512 30.08283025 33.19689958 24.04983999 30.77734375 17.828125 C29.19764128 14.98614125 29.19764128 14.98614125 26.08984375 13.203125 C23.86498634 12.92834127 23.86498634 12.92834127 21.421875 13.0078125 C20.21494995 13.01530518 20.21494995 13.01530518 18.98364258 13.02294922 C17.96681396 13.04115723 16.94998535 13.05936523 15.90234375 13.078125 C11.04515625 13.14 11.04515625 13.14 6.08984375 13.203125 Z " fill="#FFFFFF" transform="translate(121.91015625,103.796875)"/>
<path d="M0 0 C4.62 0 9.24 0 14 0 C14 9.57 14 19.14 14 29 C22.25 29 30.5 29 39 29 C39 19.43 39 9.86 39 0 C43.62 0 48.24 0 53 0 C53 23.76 53 47.52 53 72 C48.38 72 43.76 72 39 72 C39 62.1 39 52.2 39 42 C30.75 42 22.5 42 14 42 C14 51.9 14 61.8 14 72 C9.38 72 4.76 72 0 72 C0 48.24 0 24.48 0 0 Z " fill="#FFFFFF" transform="translate(45,104)"/>
</svg>
