<?xml version="1.0" encoding="UTF-8"?>
<svg version="1.1" xmlns="http://www.w3.org/2000/svg" width="280" height="280">
<path d="M0 0 C2.98202297 0.00097206 5.96146103 -0.04080645 8.94311523 -0.08496094 C44.65795102 -0.30542289 76.60265459 16.42502831 102.18334961 40.50097656 C102.84592773 41.09910156 103.50850586 41.69722656 104.19116211 42.31347656 C120.22849533 57.37688266 130.63868774 77.77431035 137.18334961 98.50097656 C137.5363916 99.49162109 137.88943359 100.48226562 138.25317383 101.50292969 C141.91589986 112.97480261 141.79125128 124.38394976 141.70483398 136.34277344 C141.68343242 139.86235801 141.70469949 143.37989217 141.73022461 146.89941406 C141.75363211 165.60126444 138.97041877 181.38957094 131.18334961 198.50097656 C130.87880859 199.1704834 130.57426758 199.83999023 130.26049805 200.52978516 C126.08855563 209.55484676 121.46111435 217.73754863 115.18334961 225.50097656 C114.55058105 226.28384033 114.55058105 226.28384033 113.9050293 227.08251953 C96.98562609 247.87496565 76.89457122 263.87193083 51.62084961 273.37597656 C50.92693115 273.63805908 50.2330127 273.9001416 49.51806641 274.17016602 C47.09194948 275.02788412 44.6525305 275.77564527 42.18334961 276.50097656 C41.01167236 276.85256836 39.83999512 277.20416016 38.6328125 277.56640625 C27.3768662 280.70441818 16.4479321 281.11928842 4.80908203 281.02246094 C1.75269037 281.00102454 -1.30134529 281.02237201 -4.35766602 281.04785156 C-20.13100849 281.07109272 -34.71475073 278.97287237 -49.50415039 273.25097656 C-50.67820435 272.80492065 -50.67820435 272.80492065 -51.87597656 272.34985352 C-70.28760478 265.15327829 -85.69965648 254.22637563 -99.81665039 240.50097656 C-100.37642578 239.96311523 -100.93620117 239.42525391 -101.51293945 238.87109375 C-115.30254066 225.41359022 -124.85279807 208.92320291 -131.62915039 191.00097656 C-132.02807495 189.9542981 -132.02807495 189.9542981 -132.43505859 188.88647461 C-133.3099627 186.4439537 -134.07451341 183.98728656 -134.81665039 181.50097656 C-135.16969238 180.34742676 -135.52273437 179.19387695 -135.88647461 178.00537109 C-139.19695392 166.29288707 -139.43173323 154.79217749 -139.33813477 142.68017578 C-139.31663498 139.37360712 -139.33807192 136.06919964 -139.36352539 132.76269531 C-139.37906175 121.00883116 -138.72397014 110.63812922 -134.81665039 99.50097656 C-134.57591797 98.73060059 -134.33518555 97.96022461 -134.0871582 97.16650391 C-123.19491366 62.8054907 -98.27578182 32.23602406 -66.56665039 15.12597656 C-59.95034597 11.71580486 -53.17200855 8.96239354 -46.12915039 6.56347656 C-45.33541016 6.29293457 -44.54166992 6.02239258 -43.72387695 5.74365234 C-29.19833075 1.11975522 -15.14522374 -0.03466576 0 0 Z M-76.81665039 47.50097656 C-77.31455078 47.9234668 -77.81245117 48.34595703 -78.32543945 48.78125 C-98.23647285 65.82828235 -112.41664134 88.78410176 -117.81665039 114.50097656 C-117.99180176 115.28698242 -118.16695312 116.07298828 -118.34741211 116.8828125 C-124.58336946 147.15585434 -118.3193143 179.20754271 -101.5949707 205.04760742 C-84.42446901 230.63008567 -59.81175045 250.40706067 -29.81665039 258.50097656 C-28.67067383 258.819375 -27.52469727 259.13777344 -26.34399414 259.46582031 C4.44082429 266.61053218 37.43604424 260.61663439 64.41040039 244.61035156 C69.66497463 241.32244391 74.45569776 237.49672646 79.18334961 233.50097656 C79.71669922 233.05802246 80.25004883 232.61506836 80.79956055 232.15869141 C105.23875524 211.64591388 119.19867824 182.78820147 122.93334961 151.25097656 C123.04059662 149.66908309 123.12260734 148.0853374 123.18334961 146.50097656 C123.23491211 145.50839844 123.28647461 144.51582031 123.33959961 143.49316406 C124.167211 113.76812166 113.57374472 84.95902065 94.18334961 62.50097656 C93.72734375 61.96279297 93.27133789 61.42460938 92.80151367 60.87011719 C70.71593594 35.01013392 40.95100004 21.55305244 7.29956055 18.64453125 C-22.55023488 16.61964896 -54.25339694 28.20775985 -76.81665039 47.50097656 Z " fill="#000000" transform="translate(138.816650390625,-0.5009765625)"/>
<path d="M0 0 C4.95 0 9.9 0 15 0 C16.32 11.22 17.64 22.44 19 34 C20.98 28.555 20.98 28.555 23 23 C28.94 23 34.88 23 41 23 C42.32 26.63 43.64 30.26 45 34 C46.72061811 22.69308097 47.92348159 11.38360953 49 0 C54.28 0 59.56 0 65 0 C65.166945 8.90770808 64.55077763 17.46003137 63.46875 26.296875 C63.31119836 27.62486675 63.15426837 28.95293238 62.9979248 30.28106689 C62.58979739 33.73403405 62.17337722 37.18594912 61.75506592 40.63769531 C61.32767133 44.17712389 60.90834256 47.71750748 60.48828125 51.2578125 C59.66662911 58.1728198 58.83544303 65.08664542 58 72 C52.39 72 46.78 72 41 72 C34.42857143 55 34.42857143 55 33 47 C32.34 47 31.68 47 31 47 C30.91363281 47.54785156 30.82726562 48.09570312 30.73828125 48.66015625 C29.73967595 54.2944889 28.24685471 59.64479353 26.4375 65.0625 C26.10455933 66.06325562 26.10455933 66.06325562 25.76489258 67.08422852 C24.13506369 71.86493631 24.13506369 71.86493631 23 73 C20.50761431 73.12653198 18.05529559 73.18519825 15.5625 73.1875 C14.86833984 73.19974609 14.17417969 73.21199219 13.45898438 73.22460938 C11.63779099 73.22989842 9.8171308 73.12169207 8 73 C5.54413529 70.54413529 5.60626377 69.48334883 5.22216797 66.08569336 C5.10219452 65.05959457 4.98222107 64.03349579 4.85861206 62.9763031 C4.73769196 61.85877151 4.61677185 60.74123993 4.4921875 59.58984375 C4.36184113 58.43440567 4.23149475 57.27896759 4.09719849 56.08851624 C3.82233474 53.63004945 3.55195093 51.17107838 3.28564453 48.71166992 C2.88217182 45.00341507 2.45977603 41.29768209 2.03515625 37.59179688 C0.62503277 24.9776072 -0.33770684 12.69337217 0 0 Z " fill="#000000" transform="translate(176,104)"/>
<path d="M0 0 C2.66281428 -0.30501223 5.08894724 -0.42004716 7.75390625 -0.3984375 C8.52878891 -0.40130768 9.30367157 -0.40417786 10.10203552 -0.40713501 C11.74714892 -0.40917941 13.39228642 -0.4036233 15.03735352 -0.39111328 C17.52872895 -0.3752155 20.01844428 -0.3908686 22.50976562 -0.41015625 C31.80433796 -0.42226518 39.58787722 -0.24727367 47.8125 4.6875 C54.94994767 12.23280182 55.37062451 21.13031983 55.21484375 31.00390625 C54.92043502 38.83225259 52.5328188 44.4671812 47 50 C46.34 50 45.68 50 45 50 C45.30292969 50.51385254 45.60585937 51.02770508 45.91796875 51.55712891 C47.2921875 53.90545732 48.64613473 56.26488352 50 58.625 C50.47695312 59.43324219 50.95390625 60.24148437 51.4453125 61.07421875 C53.98369574 65.53452072 55.68564662 68.70337987 55 74 C52.00158236 74.74960441 49.08084027 75.13330151 46 75.25 C45.360625 75.27578125 44.72125 75.3015625 44.0625 75.328125 C41.01736395 74.84367154 39.44789699 73.91394711 37 72 C35.19335279 69.43711581 33.75543585 66.71767111 32.3125 63.9375 C31.54057033 62.48678259 30.76594531 61.0374953 29.98828125 59.58984375 C29.48615112 58.62872681 29.48615112 58.62872681 28.97387695 57.64819336 C27.98580858 55.81976511 27.98580858 55.81976511 26 54 C22.01061087 53.41430021 18.02813544 53.25711503 14 53 C14 59.93 14 66.86 14 74 C3.2578125 74.1953125 3.2578125 74.1953125 0 74 C-2.80886288 71.19113712 -2.25362472 69.42116012 -2.25878906 65.48657227 C-2.2622937 64.81810272 -2.26579834 64.14963318 -2.26940918 63.46090698 C-2.27822852 61.24596848 -2.27237615 59.03134814 -2.265625 56.81640625 C-2.26697176 55.27945392 -2.26891238 53.74250201 -2.27142334 52.20555115 C-2.274375 48.98163809 -2.27007626 45.75783575 -2.26074219 42.53393555 C-2.24935713 38.39993998 -2.25590074 34.26620435 -2.26788712 30.13221836 C-2.27511279 26.95723003 -2.27281438 23.78230334 -2.26763153 20.60731316 C-2.26629649 19.0830679 -2.26793766 17.55881706 -2.27259064 16.03457832 C-2.27766649 13.90384212 -2.26993067 11.77352708 -2.25878906 9.64282227 C-2.25719788 8.42973892 -2.25560669 7.21665558 -2.25396729 5.96681213 C-2 3 -2 3 0 0 Z M14 14 C14 22.58 14 31.16 14 40 C17.9909375 40.0928125 17.9909375 40.0928125 22.0625 40.1875 C22.8862915 40.21481201 23.71008301 40.24212402 24.55883789 40.27026367 C29.78039083 40.32841293 33.42416248 39.58531876 38 37 C40.57287023 30.78223027 40.67139596 24.16329538 38.140625 17.859375 C36.98827667 15.68944033 36.98827667 15.68944033 34 14 C31.77514259 13.72521627 31.77514259 13.72521627 29.33203125 13.8046875 C28.1251062 13.81218018 28.1251062 13.81218018 26.89379883 13.81982422 C25.87697021 13.83803223 24.8601416 13.85624023 23.8125 13.875 C18.9553125 13.936875 18.9553125 13.936875 14 14 Z " fill="#000000" transform="translate(114,103)"/>
<path d="M0 0 C4.62 0 9.24 0 14 0 C14 9.57 14 19.14 14 29 C22.25 29 30.5 29 39 29 C39 19.43 39 9.86 39 0 C43.62 0 48.24 0 53 0 C53 23.76 53 47.52 53 72 C48.38 72 43.76 72 39 72 C39 62.1 39 52.2 39 42 C30.75 42 22.5 42 14 42 C14 51.9 14 61.8 14 72 C9.38 72 4.76 72 0 72 C0 48.24 0 24.48 0 0 Z " fill="#000000" transform="translate(45,104)"/>
</svg>
