<svg xmlns="http://www.w3.org/2000/svg" xmlns:xlink="http://www.w3.org/1999/xlink" width="500" zoomAndPan="magnify" viewBox="0 0 375 374.999991" height="500" preserveAspectRatio="xMidYMid meet" version="1.2"><defs><clipPath id="ba4405bdf3"><path d="M 246 58.066406 L 373 58.066406 L 373 316.816406 L 246 316.816406 Z M 246 58.066406 "/></clipPath><clipPath id="e299f3836d"><path d="M 0 58.066406 L 237 58.066406 L 237 316.816406 L 0 316.816406 Z M 0 58.066406 "/></clipPath></defs><g id="f3a268f91a"><g clip-rule="nonzero" clip-path="url(#ba4405bdf3)"><path style=" stroke:none;fill-rule:nonzero;fill:#000000;fill-opacity:1;" d="M 362.285156 169.363281 C 359.792969 166.65625 362.164062 163.023438 362.707031 160.027344 C 357.4375 166.089844 349.992188 169.875 342.101562 171.125 C 336.121094 185.816406 319.257812 194.976562 303.699219 191.136719 C 298.441406 189.847656 298.496094 181.40625 303.789062 180.171875 C 308.242188 179.960938 312.789062 181.523438 317.164062 180.011719 C 324.894531 178.132812 330.308594 171.304688 332.351562 163.890625 C 333.367188 160.089844 337.886719 160.667969 340.914062 160.117188 C 349.953125 159.050781 357.082031 151.136719 358.371094 142.3125 C 356.023438 140.261719 355.289062 137.355469 355.039062 134.382812 C 353.113281 122.96875 341.535156 114.90625 330.203125 115.644531 C 326.832031 116.316406 322.773438 114.433594 322.835938 110.582031 C 323.773438 104.980469 326.894531 99.496094 325.3125 93.667969 C 323.152344 82.097656 311.53125 73.796875 299.910156 74.636719 C 294.984375 75.441406 293.679688 69.914062 291.152344 66.972656 C 282.480469 55.992188 264.128906 55.46875 254.539062 65.511719 C 249.519531 70.894531 246.621094 78.324219 246.992188 85.699219 C 247.070312 105.871094 246.964844 126.058594 247.03125 146.230469 C 247.082031 157.238281 256.277344 166.5625 266.871094 168.40625 C 279.070312 170.839844 292.652344 164.082031 297.210938 152.335938 C 286.828125 148.875 277.855469 139.304688 278.5 127.835938 C 278.476562 122.445312 286.785156 121.023438 289.066406 125.597656 C 290.027344 129.265625 289.800781 133.515625 292.609375 136.472656 C 297.695312 142.972656 308.65625 142.972656 313.792969 136.511719 C 316.601562 133.542969 316.390625 129.253906 317.378906 125.546875 C 319.695312 121.046875 327.851562 122.457031 327.917969 127.78125 C 328.613281 139.40625 319.382812 149.808594 308.261719 152.203125 C 304.253906 169.667969 285.824219 181.1875 268.378906 179.371094 C 260.421875 178.738281 253.214844 174.796875 247 170.023438 C 247.023438 190.472656 246.984375 210.921875 247.023438 231.386719 C 253.375 230.976562 259.273438 228.058594 265.652344 227.847656 C 274.441406 227.519531 283.355469 230.675781 289.789062 236.699219 C 295.847656 242.484375 299.484375 250.519531 300.578125 258.765625 C 309.40625 263.960938 314.28125 276.074219 308.914062 285.332031 C 306.082031 289.316406 299.496094 286.199219 299.617188 281.742188 C 299.683594 278.492188 300.957031 274.984375 299.207031 271.945312 C 296.941406 267.199219 290.578125 265.066406 285.964844 267.734375 C 282.59375 269.261719 281.761719 273.195312 279.417969 275.71875 C 276.703125 278.070312 272.238281 276.890625 270.828125 273.679688 C 269.222656 270.351562 271.5 266.855469 273.199219 264.066406 C 276.742188 258.609375 283.09375 255.925781 289.328125 254.980469 C 286.796875 247.050781 280.367188 240.542969 272.054688 238.910156 C 263.609375 236.53125 255.917969 242.144531 247.5625 242 C 247.585938 260.070312 247.484375 278.125 247.601562 296.191406 C 247.996094 306.9375 257.835938 315.8125 268.363281 316.394531 C 277.070312 317.117188 285.765625 312.460938 290.351562 305.109375 C 291.617188 303.546875 292.472656 301.203125 294.671875 300.757812 C 296.832031 300.574219 298.980469 301.058594 301.140625 301.179688 C 313.945312 302.390625 327.1875 294.605469 331.941406 282.597656 C 334.972656 275.625 334.867188 267.457031 331.5625 260.621094 C 329.863281 257.257812 333.078125 253.414062 336.597656 253.441406 C 348.425781 251.496094 358.214844 239.871094 356.449219 227.707031 C 356.277344 223.382812 353.355469 219.921875 352.246094 215.886719 C 351.996094 211.875 355.882812 210.398438 358.902344 209.128906 C 369.101562 204.695312 375.105469 192.160156 371.167969 181.578125 C 369.714844 176.554688 365.816406 172.976562 362.285156 169.363281 Z M 362.285156 169.363281 "/></g><g clip-rule="nonzero" clip-path="url(#e299f3836d)"><path style=" stroke:none;fill-rule:nonzero;fill:#000000;fill-opacity:1;" d="M 39.292969 237.367188 C 39.292969 241.773438 35.71875 245.347656 31.316406 245.347656 C 26.914062 245.347656 23.339844 241.773438 23.339844 237.367188 L 23.339844 88.882812 C 23.339844 80.425781 26.816406 72.71875 32.40625 67.117188 C 37.972656 61.519531 45.683594 58.050781 54.167969 58.050781 L 164.890625 58.050781 C 167.09375 58.050781 169.085938 58.945312 170.53125 60.386719 L 234.664062 124.542969 C 236.21875 126.101562 237 128.144531 237 130.183594 L 237.003906 248.835938 L 237.003906 285.949219 C 237.003906 294.4375 233.535156 302.152344 227.953125 307.734375 C 222.339844 313.316406 214.636719 316.785156 206.175781 316.785156 L 30.84375 316.785156 C 22.355469 316.785156 14.640625 313.316406 9.0625 307.734375 C 3.484375 302.121094 0.0117188 294.414062 0.0117188 285.949219 C 0.0117188 277.457031 3.480469 269.738281 9.0625 264.15625 C 14.640625 258.574219 22.355469 255.105469 30.84375 255.105469 L 196.960938 255.105469 C 201.363281 255.105469 204.9375 258.679688 204.9375 263.085938 C 204.9375 267.488281 201.363281 271.066406 196.960938 271.066406 C 192.878906 271.066406 189.15625 272.742188 186.460938 275.441406 C 183.761719 278.140625 182.085938 281.863281 182.085938 285.949219 C 182.085938 289.871094 183.625 293.464844 186.121094 296.132812 L 186.460938 296.449219 C 189.15625 299.148438 192.878906 300.828125 196.960938 300.828125 L 206.175781 300.828125 C 210.265625 300.828125 213.992188 299.152344 216.6875 296.464844 C 219.371094 293.75 221.046875 290.027344 221.046875 285.949219 L 221.046875 138.164062 L 187.738281 138.164062 C 179.277344 138.164062 171.574219 134.695312 165.992188 129.113281 L 165.960938 129.082031 C 160.382812 123.5 156.914062 115.792969 156.914062 107.328125 L 156.914062 74.007812 L 54.167969 74.007812 C 50.089844 74.007812 46.367188 75.691406 43.671875 78.386719 C 40.960938 81.066406 39.292969 84.785156 39.292969 88.882812 Z M 169.992188 300.828125 C 167.535156 296.410156 166.128906 291.332031 166.128906 285.949219 C 166.128906 280.558594 167.527344 275.484375 169.976562 271.066406 L 30.839844 271.066406 C 26.761719 271.066406 23.039062 272.742188 20.34375 275.441406 C 17.644531 278.140625 15.96875 281.863281 15.96875 285.949219 C 15.96875 290.039062 17.640625 293.765625 20.328125 296.464844 C 23.039062 299.148438 26.761719 300.828125 30.839844 300.828125 Z M 209.765625 122.207031 L 172.867188 85.292969 L 172.867188 107.328125 C 172.867188 111.421875 174.542969 115.144531 177.226562 117.84375 C 179.925781 120.53125 183.648438 122.207031 187.738281 122.207031 Z M 77.183594 182.363281 C 72.78125 182.363281 69.207031 178.789062 69.207031 174.382812 C 69.207031 169.976562 72.78125 166.402344 77.183594 166.402344 L 183.15625 166.402344 C 187.558594 166.402344 191.132812 169.976562 191.132812 174.382812 C 191.132812 178.789062 187.558594 182.363281 183.15625 182.363281 Z M 77.183594 146.378906 C 72.78125 146.378906 69.207031 142.804688 69.207031 138.402344 C 69.207031 133.996094 72.78125 130.421875 77.183594 130.421875 L 130.171875 130.421875 C 134.574219 130.421875 138.148438 133.996094 138.148438 138.402344 C 138.148438 142.804688 134.574219 146.378906 130.171875 146.378906 Z M 77.183594 218.34375 C 72.78125 218.34375 69.207031 214.769531 69.207031 210.363281 C 69.207031 205.960938 72.78125 202.382812 77.183594 202.382812 L 183.15625 202.382812 C 187.558594 202.382812 191.132812 205.960938 191.132812 210.363281 C 191.132812 214.769531 187.558594 218.34375 183.15625 218.34375 Z M 77.183594 218.34375 "/></g></g></svg>