<svg xmlns="http://www.w3.org/2000/svg" xmlns:xlink="http://www.w3.org/1999/xlink" width="500" zoomAndPan="magnify" viewBox="0 0 375 374.999991" height="500" preserveAspectRatio="xMidYMid meet" version="1.2"><defs><clipPath id="9d2890fc50"><path d="M 246 58.066406 L 372 58.066406 L 372 316.816406 L 246 316.816406 Z M 246 58.066406 "/></clipPath><clipPath id="53c7749b8a"><path d="M 0 58.066406 L 237 58.066406 L 237 316.816406 L 0 316.816406 Z M 0 58.066406 "/></clipPath></defs><g id="86e47296fe"><g clip-rule="nonzero" clip-path="url(#9d2890fc50)"><path style=" stroke:none;fill-rule:nonzero;fill:#ffffff;fill-opacity:1;" d="M 361.824219 169.363281 C 359.339844 166.65625 361.703125 163.023438 362.246094 160.027344 C 356.984375 166.089844 349.554688 169.875 341.679688 171.125 C 335.710938 185.816406 318.875 194.976562 303.34375 191.136719 C 298.097656 189.847656 298.152344 181.40625 303.4375 180.171875 C 307.882812 179.960938 312.417969 181.523438 316.785156 180.011719 C 324.503906 178.132812 329.90625 171.304688 331.945312 163.890625 C 332.960938 160.089844 337.472656 160.667969 340.496094 160.117188 C 349.515625 159.050781 356.628906 151.136719 357.917969 142.3125 C 355.574219 140.261719 354.839844 137.355469 354.589844 134.382812 C 352.671875 122.96875 341.113281 114.90625 329.800781 115.644531 C 326.4375 116.316406 322.386719 114.433594 322.449219 110.582031 C 323.382812 104.980469 326.5 99.496094 324.921875 93.667969 C 322.765625 82.097656 311.164062 73.796875 299.566406 74.636719 C 294.644531 75.441406 293.34375 69.914062 290.820312 66.972656 C 282.167969 55.992188 263.847656 55.46875 254.277344 65.511719 C 249.265625 70.894531 246.371094 78.324219 246.742188 85.699219 C 246.816406 105.871094 246.714844 126.058594 246.78125 146.230469 C 246.832031 157.238281 256.011719 166.5625 266.582031 168.40625 C 278.761719 170.839844 292.320312 164.082031 296.867188 152.335938 C 286.507812 148.875 277.550781 139.304688 278.195312 127.835938 C 278.167969 122.445312 286.464844 121.023438 288.738281 125.597656 C 289.699219 129.265625 289.472656 133.515625 292.277344 136.472656 C 297.355469 142.972656 308.292969 142.972656 313.421875 136.511719 C 316.226562 133.542969 316.015625 129.253906 317 125.546875 C 319.3125 121.046875 327.453125 122.457031 327.519531 127.78125 C 328.214844 139.40625 319 149.808594 307.898438 152.203125 C 303.902344 169.667969 285.503906 181.1875 268.089844 179.371094 C 260.148438 178.738281 252.953125 174.796875 246.746094 170.023438 C 246.773438 190.472656 246.734375 210.921875 246.773438 231.386719 C 253.113281 230.976562 259.003906 228.058594 265.367188 227.847656 C 274.140625 227.519531 283.039062 230.675781 289.460938 236.699219 C 295.507812 242.484375 299.140625 250.519531 300.230469 258.765625 C 309.042969 263.960938 313.910156 276.074219 308.554688 285.332031 C 305.726562 289.316406 299.152344 286.199219 299.269531 281.742188 C 299.335938 278.492188 300.609375 274.984375 298.863281 271.945312 C 296.601562 267.199219 290.246094 265.066406 285.644531 267.734375 C 282.28125 269.261719 281.449219 273.195312 279.109375 275.71875 C 276.402344 278.070312 271.941406 276.890625 270.535156 273.679688 C 268.933594 270.351562 271.207031 266.855469 272.902344 264.066406 C 276.4375 258.609375 282.777344 255.925781 289 254.980469 C 286.472656 247.050781 280.058594 240.542969 271.757812 238.910156 C 263.332031 236.53125 255.652344 242.144531 247.3125 242 C 247.335938 260.070312 247.234375 278.125 247.347656 296.191406 C 247.742188 306.9375 257.566406 315.8125 268.074219 316.394531 C 276.765625 317.117188 285.445312 312.460938 290.023438 305.109375 C 291.285156 303.546875 292.140625 301.203125 294.335938 300.757812 C 296.492188 300.574219 298.636719 301.058594 300.792969 301.179688 C 313.574219 302.390625 326.792969 294.605469 331.539062 282.597656 C 334.5625 275.625 334.457031 267.457031 331.160156 260.621094 C 329.464844 257.257812 332.671875 253.414062 336.183594 253.441406 C 347.992188 251.496094 357.761719 239.871094 356 227.707031 C 355.828125 223.382812 352.910156 219.921875 351.804688 215.886719 C 351.558594 211.875 355.433594 210.398438 358.449219 209.128906 C 368.628906 204.695312 374.625 192.160156 370.691406 181.578125 C 369.242188 176.554688 365.351562 172.976562 361.824219 169.363281 Z M 361.824219 169.363281 "/></g><g clip-rule="nonzero" clip-path="url(#53c7749b8a)"><path style=" stroke:none;fill-rule:nonzero;fill:#ffffff;fill-opacity:1;" d="M 39.292969 237.308594 C 39.292969 241.710938 35.71875 245.285156 31.316406 245.285156 C 26.914062 245.285156 23.339844 241.710938 23.339844 237.308594 L 23.339844 88.875 C 23.339844 80.417969 26.816406 72.710938 32.40625 67.117188 C 37.972656 61.519531 45.683594 58.050781 54.167969 58.050781 L 164.890625 58.050781 C 167.09375 58.050781 169.085938 58.945312 170.53125 60.386719 L 234.664062 124.519531 C 236.21875 126.078125 237 128.121094 237 130.160156 L 237.003906 248.769531 L 237.003906 285.871094 C 237.003906 294.355469 233.535156 302.070312 227.953125 307.652344 C 222.339844 313.226562 214.636719 316.699219 206.175781 316.699219 L 30.84375 316.699219 C 22.355469 316.699219 14.640625 313.230469 9.0625 307.652344 C 3.484375 302.039062 0.0117188 294.335938 0.0117188 285.871094 C 0.0117188 277.382812 3.480469 269.667969 9.0625 264.085938 C 14.640625 258.507812 22.355469 255.039062 30.84375 255.039062 L 196.960938 255.039062 C 201.363281 255.039062 204.9375 258.613281 204.9375 263.015625 C 204.9375 267.417969 201.363281 270.992188 196.960938 270.992188 C 192.878906 270.992188 189.15625 272.671875 186.460938 275.367188 C 183.761719 278.066406 182.085938 281.789062 182.085938 285.871094 C 182.085938 289.792969 183.625 293.386719 186.121094 296.050781 L 186.460938 296.371094 C 189.15625 299.066406 192.878906 300.746094 196.960938 300.746094 L 206.175781 300.746094 C 210.265625 300.746094 213.992188 299.070312 216.6875 296.386719 C 219.371094 293.671875 221.046875 289.949219 221.046875 285.871094 L 221.046875 138.136719 L 187.738281 138.136719 C 179.277344 138.136719 171.574219 134.667969 165.992188 129.089844 L 165.960938 129.058594 C 160.382812 123.476562 156.914062 115.773438 156.914062 107.3125 L 156.914062 74.003906 L 54.167969 74.003906 C 50.089844 74.003906 46.367188 75.683594 43.671875 78.382812 C 40.960938 81.058594 39.292969 84.777344 39.292969 88.875 Z M 169.992188 300.746094 C 167.535156 296.328125 166.128906 291.253906 166.128906 285.871094 C 166.128906 280.484375 167.527344 275.410156 169.976562 270.992188 L 30.839844 270.992188 C 26.761719 270.992188 23.039062 272.671875 20.34375 275.367188 C 17.644531 278.066406 15.96875 281.789062 15.96875 285.871094 C 15.96875 289.960938 17.640625 293.6875 20.328125 296.386719 C 23.039062 299.066406 26.761719 300.746094 30.839844 300.746094 Z M 209.765625 122.183594 L 172.867188 85.285156 L 172.867188 107.3125 C 172.867188 111.402344 174.542969 115.125 177.226562 117.824219 C 179.925781 120.511719 183.648438 122.183594 187.738281 122.183594 Z M 77.183594 182.320312 C 72.78125 182.320312 69.207031 178.746094 69.207031 174.34375 C 69.207031 169.941406 72.78125 166.367188 77.183594 166.367188 L 183.15625 166.367188 C 187.558594 166.367188 191.132812 169.941406 191.132812 174.34375 C 191.132812 178.746094 187.558594 182.320312 183.15625 182.320312 Z M 77.183594 146.351562 C 72.78125 146.351562 69.207031 142.777344 69.207031 138.375 C 69.207031 133.96875 72.78125 130.398438 77.183594 130.398438 L 130.171875 130.398438 C 134.574219 130.398438 138.148438 133.96875 138.148438 138.375 C 138.148438 142.777344 134.574219 146.351562 130.171875 146.351562 Z M 77.183594 218.289062 C 72.78125 218.289062 69.207031 214.714844 69.207031 210.3125 C 69.207031 205.910156 72.78125 202.335938 77.183594 202.335938 L 183.15625 202.335938 C 187.558594 202.335938 191.132812 205.910156 191.132812 210.3125 C 191.132812 214.714844 187.558594 218.289062 183.15625 218.289062 Z M 77.183594 218.289062 "/></g></g></svg>