<?xml version="1.0" encoding="UTF-8"?>
<svg version="1.1" xmlns="http://www.w3.org/2000/svg" width="1861" height="450">
<path d="M0 0 C1.04857178 0.00418945 2.09714355 0.00837891 3.17749023 0.01269531 C51.11180516 0.69658779 93.64117288 25.80302548 130.45800781 54.35253906 C167.64020858 83.65277321 167.64020858 83.65277321 212.96484375 90.91015625 C231.38346496 86.90404687 243.8970925 70.74898249 253.76269531 55.56103516 C254.11170898 55.01108887 254.46072266 54.46114258 254.8203125 53.89453125 C255.41585938 53.04246094 256.01140625 52.19039062 256.625 51.3125 C257.285 51.3125 257.945 51.3125 258.625 51.3125 C257.99316972 70.04626784 252.62407875 85.90198412 240.625 100.3125 C240.10292969 101.055 239.58085937 101.7975 239.04296875 102.5625 C238.57503906 103.14 238.10710937 103.7175 237.625 104.3125 C236.965 104.3125 236.305 104.3125 235.625 104.3125 C235.625 104.9725 235.625 105.6325 235.625 106.3125 C224.43236729 116.14319731 210.19478106 120.26646444 195.625 121.3125 C194.54025391 121.39371094 194.54025391 121.39371094 193.43359375 121.4765625 C169.89680493 122.35272046 145.59221285 111.92564116 125.6875 100.3125 C125.0385376 99.93391846 124.3895752 99.55533691 123.72094727 99.1652832 C118.77271435 96.186608 114.15235576 92.819742 109.5012207 89.40039062 C77.10219189 65.88146231 30.07009376 32.58738184 -12.55078125 38.7734375 C-24.14089866 41.0887371 -33.27423749 46.0998363 -40 56 C-44.05696952 62.77437363 -45.90675848 70.46590732 -46.375 78.3125 C-46.42785156 79.15941406 -46.48070313 80.00632812 -46.53515625 80.87890625 C-47.02298953 96.468361 -42.61125913 110.82382182 -37.375 125.3125 C-50.19187527 120.67190723 -58.47139813 107.27960254 -64.09375 95.48828125 C-65.99736013 90.76988175 -67.33854782 85.97222044 -68.61328125 81.05078125 C-69.10320512 78.42038255 -69.10320512 78.42038255 -70.375 77.3125 C-71.50521753 63.87006468 -71.99685764 50.35545177 -65.375 38.3125 C-64.96378906 37.39210937 -64.55257812 36.47171875 -64.12890625 35.5234375 C-56.92182871 20.3393869 -42.54570646 10.15808465 -27.125 4.4375 C-17.98920837 1.3120976 -9.64937931 -0.05312588 0 0 Z " fill="#000000" transform="translate(71.375,67.6875)"/>
<path d="M0 0 C1.07185547 -0.00128906 2.14371094 -0.00257812 3.24804688 -0.00390625 C4.37146484 -0.00003906 5.49488281 0.00382812 6.65234375 0.0078125 C7.77962891 0.00394531 8.90691406 0.00007813 10.06835938 -0.00390625 C11.13892578 -0.00261719 12.20949219 -0.00132813 13.3125 0 C14.79375366 0.00169189 14.79375366 0.00169189 16.30493164 0.00341797 C18.58984375 0.1328125 18.58984375 0.1328125 19.58984375 1.1328125 C22.48378114 1.60461745 25.37473087 2.03429852 28.27734375 2.4453125 C36.65027364 3.7063431 44.53957828 5.45261594 52.58984375 8.1328125 C54.16765625 8.65294922 54.16765625 8.65294922 55.77734375 9.18359375 C82.15962144 18.59197954 101.29929136 37.62388918 120.58984375 57.1328125 C120.25984375 57.7928125 119.92984375 58.4528125 119.58984375 59.1328125 C117.46362305 59.64770508 117.46362305 59.64770508 114.6640625 60.02734375 C113.64554199 60.17518311 112.62702148 60.32302246 111.57763672 60.4753418 C110.48854004 60.63043213 109.39944336 60.78552246 108.27734375 60.9453125 C81.997109 65.05892433 63.24930869 79.99311686 46.58984375 100.1328125 C44.49308067 103.09338291 42.44245066 106.06423562 40.4765625 109.11328125 C38.58984375 111.1328125 38.58984375 111.1328125 36.30200195 111.4465332 C32.95808221 111.05973539 31.13405692 109.9528089 28.30859375 108.1328125 C26.8083667 107.17894653 26.8083667 107.17894653 25.27783203 106.20581055 C24.2257959 105.52172119 23.17375977 104.83763184 22.08984375 104.1328125 C19.91022466 102.74338226 17.73053784 101.35405827 15.55078125 99.96484375 C14.51147461 99.29662598 13.47216797 98.6284082 12.40136719 97.93994141 C2.06551929 91.29649349 -8.49596763 85.12936732 -19.29980469 79.28173828 C-21.14052859 78.27960423 -22.96797844 77.25316463 -24.79296875 76.22265625 C-49.24927981 63.03307326 -77.07214624 58.8741772 -104.41015625 57.1328125 C-101.77148143 51.59537322 -97.57578916 47.58129703 -93.41015625 43.1328125 C-92.311875 41.91851562 -92.311875 41.91851562 -91.19140625 40.6796875 C-70.42689782 18.63517512 -40.72093848 5.45915133 -11.0234375 1.640625 C-7.00820151 1.07632156 -4.1259886 0.00470735 0 0 Z " fill="#000000" transform="translate(168.41015625,0.8671875)"/>
<path d="M0 0 C4.37111381 0.63266121 7.80457163 2.236322 11.75 4.1875 C23.1928171 9.68204971 35.29714222 14.62342145 48 16 C49.79630859 16.19916016 49.79630859 16.19916016 51.62890625 16.40234375 C70.3601923 18.17133217 86.16703498 14.80441119 102.5625 5.33203125 C104.98714543 4.00702469 107.4166634 2.97336433 110 2 C102.02012906 32.65950414 81.02893577 57.41813257 56 76 C55.13890625 76.64066406 54.2778125 77.28132813 53.390625 77.94140625 C33.17274614 91.81705241 7.31964014 98.95091748 -17 100 C-18.09957031 100.05285156 -19.19914062 100.10570312 -20.33203125 100.16015625 C-53.54206069 100.98770845 -85.018581 89.37828331 -111 69 C-111.7940625 68.37738281 -112.588125 67.75476563 -113.40625 67.11328125 C-114.99604921 65.81052912 -116.51161474 64.41750977 -118 63 C-118 62.34 -118 61.68 -118 61 C-118.66 61 -119.32 61 -120 61 C-121.625 58.5 -121.625 58.5 -123 56 C-122.32839844 56.02320313 -121.65679687 56.04640625 -120.96484375 56.0703125 C-81.63864645 56.78072123 -45.70022878 46.18707458 -16.73828125 18.984375 C-10.62327924 13.07557105 -5.11684064 6.80238815 0 0 Z " fill="#000000" transform="translate(198,181)"/>
<path d="M0 0 C3.87699563 4.38712663 4 5.89377497 4 12 C-3.26 14.64 -10.52 17.28 -18 20 C-15.69 22.31 -13.38 24.62 -11 27 C-9.30529687 29.2821309 -7.7474071 31.47840802 -6.25 33.875 C-5.86585937 34.48142334 -5.48171875 35.08784668 -5.0859375 35.71264648 C-2.25860654 40.30035656 -0.17018403 44.74461993 1 50 C1.17917969 50.73476562 1.35835937 51.46953125 1.54296875 52.2265625 C4.53781335 70.4004058 0.57483973 88.04494069 -10 103 C-18.45796885 113.40980782 -29.70078188 119.99692822 -42 125 C-41.35933594 125.36351562 -40.71867187 125.72703125 -40.05859375 126.1015625 C-29.5177434 132.22813722 -21.34161255 138.76331422 -17.125 150.625 C-13.93658616 162.82827441 -15.51517667 175.64158045 -21.3125 186.75 C-27.2647284 196.62929033 -34.6022399 202.71744678 -45.875 205.875 C-57.67127752 208.40923865 -70.31046172 207.88421621 -80.75 201.3125 C-82.19284102 200.24276253 -83.61020956 199.13780974 -85 198 C-86.04994141 197.15308594 -86.04994141 197.15308594 -87.12109375 196.2890625 C-93.7049932 190.38968946 -98.49096349 181.77984877 -100 173 C-100.12968112 168.99544707 -100.04356494 165.00797415 -100 161 C-95.38 161 -90.76 161 -86 161 C-85.79375 162.93875 -85.5875 164.8775 -85.375 166.875 C-84.19052516 174.37395108 -82.06900216 180.96257585 -75.78125 185.65625 C-73.55483416 186.93272842 -71.36722569 188.01194058 -69 189 C-68.22398438 189.36351562 -67.44796875 189.72703125 -66.6484375 190.1015625 C-60.76401362 192.09775349 -53.35604935 192.08955967 -47.44921875 190.171875 C-45.10928035 189.03182517 -45.10928035 189.03182517 -42 187 C-40.96746094 186.56300781 -40.96746094 186.56300781 -39.9140625 186.1171875 C-37.52212097 184.72107469 -37.05381429 183.52447068 -36 181 C-35.48759766 180.09701172 -35.48759766 180.09701172 -34.96484375 179.17578125 C-30.82160553 171.66123893 -30.27558506 164.76081413 -32.20703125 156.42578125 C-34.17044699 150.41947004 -37.56173863 145.31024605 -43 142 C-50.52921241 138.53608119 -57.57549025 136.23406471 -65.67578125 138.87109375 C-68.15188781 139.84935293 -70.57220565 140.90880723 -73 142 C-73.99 142.33 -74.98 142.66 -76 143 C-76 143.66 -76 144.32 -76 145 C-76.66 145 -77.32 145 -78 145 C-78.268125 145.556875 -78.53625 146.11375 -78.8125 146.6875 C-80.10122647 149.19712523 -81.52926478 151.59334236 -83 154 C-88.15464734 153.51675181 -91.81550319 150.81389239 -96 148 C-95.0837499 140.8608846 -90.09862543 135.47586248 -84.609375 131.08984375 C-81.18562614 128.78278119 -77.69477446 126.83291683 -74 125 C-74.52319824 124.74420166 -75.04639648 124.48840332 -75.58544922 124.22485352 C-93.89555753 115.18260091 -108.01731615 105.20191505 -115.03515625 85.1171875 C-119.87160506 69.49173751 -119.30210368 53.64615483 -112.25 38.75 C-104.07935747 23.49278054 -91.56057902 12.54301188 -74.95458984 7.36181641 C-64.0325154 4.4763889 -55.02945381 4.0796596 -44.28515625 7.34375 C-35.674122 9.06390904 -28.79173488 7.7311098 -20.6875 4.625 C-19.82060547 4.30789062 -18.95371094 3.99078125 -18.06054688 3.6640625 C-14.70556335 2.43004557 -11.38093068 1.16033811 -8.0859375 -0.2265625 C-4.96756886 -1.38281155 -3.12745539 -1.06466566 0 0 Z M-92.18359375 34.8046875 C-101.74601934 46.36185563 -104.09175284 58.27883181 -103.21142578 72.91308594 C-102.05897187 84.28857786 -94.65220149 94.85550887 -86 102 C-74.08977407 110.53599666 -61.49032373 112.85827338 -47.1015625 110.53125 C-34.75663823 107.26003978 -25.05598721 99.17677585 -18.35546875 88.48828125 C-12.00945818 76.83868837 -10.79356456 63.36587184 -14.5 50.625 C-19.55676513 37.61678441 -28.60738444 29.12902135 -40.94921875 23.2578125 C-59.08816485 15.77927134 -78.86321879 20.65010724 -92.18359375 34.8046875 Z " fill="#000000" transform="translate(1857,69)"/>
<path d="M0 0 C0.72799805 0.3000293 1.45599609 0.60005859 2.20605469 0.90917969 C21.5052316 8.97709257 43.11236252 21.11236252 58 36 C57.96289774 39.63602116 57.08693302 40.90715892 54.5859375 43.578125 C53.52947257 44.48513304 52.4580435 45.37490085 51.375 46.25 C50.79596924 46.72526123 50.21693848 47.20052246 49.62036133 47.69018555 C38.55848688 56.54116297 26.57037118 62.89536291 13 67 C11.68008057 67.40387939 11.68008057 67.40387939 10.33349609 67.81591797 C2.48447971 70.01260209 -4.87664621 70.45481461 -13 70.375 C-14.18078125 70.38660156 -15.3615625 70.39820313 -16.578125 70.41015625 C-34.03662318 70.35247399 -50.4008301 64.4132043 -63 52 C-72.62522633 40.8747384 -74.75239238 26.23445037 -74 12 C-73.31915761 5.07996257 -71.02447343 -0.11391249 -66 -5 C-46.50453236 -18.83217158 -19.65102408 -8.24223601 0 0 Z " fill="#000000" transform="translate(113,125)"/>
<path d="M0 0 C9.29053094 7.71531981 16.331374 17.7995693 20.4453125 29.125 C20.76371094 29.98867187 21.08210937 30.85234375 21.41015625 31.7421875 C26.51021834 48.33501625 24.52230973 67.68633782 16.6328125 83 C15.6011273 84.72711745 14.53965617 86.43688835 13.4453125 88.125 C12.96707031 88.88039063 12.48882812 89.63578125 11.99609375 90.4140625 C2.63870274 103.75482651 -13.27577468 113.5120946 -29.08984375 116.65234375 C-45.96869625 118.95487042 -63.15698624 116.49217913 -77.5546875 107.125 C-81.8446875 103.825 -86.1346875 100.525 -90.5546875 97.125 C-90.5546875 126.825 -90.5546875 156.525 -90.5546875 187.125 C-95.5046875 187.125 -100.4546875 187.125 -105.5546875 187.125 C-105.5546875 121.455 -105.5546875 55.785 -105.5546875 -11.875 C-100.9346875 -11.875 -96.3146875 -11.875 -91.5546875 -11.875 C-91.2246875 -6.265 -90.8946875 -0.655 -90.5546875 5.125 C-89.35972656 4.30515625 -88.16476562 3.4853125 -86.93359375 2.640625 C-85.32837966 1.55170784 -83.72289645 0.46318731 -82.1171875 -0.625 C-81.33408203 -1.16382812 -80.55097656 -1.70265625 -79.74414062 -2.2578125 C-54.56270426 -19.25269137 -24.18067271 -17.74728272 0 0 Z M-80.9296875 17.9375 C-87.49633939 26.32068199 -91.35674534 33.42292701 -91.5546875 44.125 C-91.57901855 44.86669434 -91.60334961 45.60838867 -91.62841797 46.37255859 C-91.70987045 48.97752036 -91.76151876 51.58163472 -91.8046875 54.1875 C-91.82635986 55.02651855 -91.84803223 55.86553711 -91.87036133 56.72998047 C-91.93101588 68.87278302 -86.65015602 79.04102182 -78.4296875 87.8125 C-67.28533557 98.41276741 -53.55941366 103.56730646 -38.2890625 103.3359375 C-24.0689432 102.23895687 -12.13950865 95.49492595 -2.5546875 85.125 C6.22221166 73.92688728 10.50122251 60.32112349 9.4453125 46.125 C7.30457837 31.50269739 0.72126995 19.78774746 -10.7109375 10.34375 C-32.85320137 -5.38046637 -63.07635036 -3.1123587 -80.9296875 17.9375 Z " fill="#000000" transform="translate(491.5546875,88.875)"/>
<path d="M0 0 C3.1782108 2.15346059 6.1103372 4.47505193 9 7 C9.59167969 7.49757813 10.18335938 7.99515625 10.79296875 8.5078125 C23.08319635 19.70120056 29.79578463 35.87555717 31.1875 52.19921875 C31.7131601 69.97310089 25.99144383 87.2687452 14.3125 100.6875 C0.79614612 114.85037603 -15.81610033 121.82050001 -35.375 122.4375 C-55.15299331 121.92564717 -69.3887775 114.15010025 -84 101 C-84.33 131.03 -84.66 161.06 -85 192 C-89.29 192 -93.58 192 -98 192 C-98 126.33 -98 60.66 -98 -7 C-93.71 -7 -89.42 -7 -85 -7 C-84.67 -0.73 -84.34 5.54 -84 12 C-82.411875 10.47375 -80.82375 8.9475 -79.1875 7.375 C-57.62878871 -12.57899667 -24.95059071 -14.75609728 0 0 Z M-72.3671875 21.20703125 C-81.23182681 30.6109142 -86.14855595 41.97659465 -86 55 C-85.22428543 66.80279549 -83.45770145 78.41152671 -76 88 C-75.53078125 88.62390625 -75.0615625 89.2478125 -74.578125 89.890625 C-66.13695818 100.4219855 -53.94263803 106.14692275 -40.6875 107.875 C-25.01535734 108.80489558 -12.07448512 104.35342725 -0.125 94.4453125 C9.43199846 85.52829162 15.45136319 73.64698309 16.125 60.57421875 C16.46524518 45.539635 12.91160404 32.21312454 2.359375 21.16625977 C-7.27265257 11.54543968 -18.18932797 5.74746206 -31.95703125 4.97265625 C-48.39857029 5.12039794 -60.56695274 9.52306467 -72.3671875 21.20703125 Z " fill="#000000" transform="translate(954,84)"/>
<path d="M0 0 C0.83144531 0.2784375 1.66289063 0.556875 2.51953125 0.84375 C9.10756753 3.19156016 14.47173164 6.76320946 20 11 C20.81984375 11.61101562 21.6396875 12.22203125 22.484375 12.8515625 C31.64748449 20.67719949 36.96884471 30.87346664 41 42 C41.4021875 43.02222656 41.804375 44.04445312 42.21875 45.09765625 C43.08634203 48.32076066 43.03771736 49.85483124 42 53 C40.24560547 54.19995117 40.24560547 54.19995117 37.8671875 55.04296875 C36.93970703 55.38521484 36.01222656 55.72746094 35.05664062 56.08007812 C34.00669922 56.44552734 32.95675781 56.81097656 31.875 57.1875 C29.50721653 58.05436347 27.14008396 58.92300589 24.7734375 59.79296875 C24.11168518 60.03304657 23.44993286 60.27312439 22.76812744 60.52047729 C13.66356005 63.82650045 4.63514109 67.33347944 -4.4050293 70.81072998 C-8.51245185 72.38904363 -12.62242771 73.96064783 -16.73236084 75.53240967 C-24.37224221 78.45447489 -32.00898461 81.38393779 -39.6328125 84.34765625 C-40.84388672 84.81751953 -42.05496094 85.28738281 -43.30273438 85.77148438 C-45.43821146 86.60131997 -47.57243763 87.43438579 -49.70507812 88.27148438 C-50.61966797 88.62662109 -51.53425781 88.98175781 -52.4765625 89.34765625 C-53.24049316 89.64679932 -54.00442383 89.94594238 -54.79150391 90.25415039 C-57.17317653 91.05848489 -59.52765274 91.55763441 -62 92 C-57.20655652 101.88647718 -46.75221197 107.1963067 -36.83984375 110.78125 C-22.51111919 114.7827008 -8.57710189 112.95303325 4.26953125 105.72265625 C14.82929993 99.22848846 20.12469834 90.5191737 25.23828125 79.57421875 C26.64346185 76.72335345 27.97666833 74.42177237 30 72 C34.3177458 72.50797009 38.03302114 73.19682779 42 75 C41.15720637 89.60842299 32.68163789 102.19579382 22.3203125 112.08984375 C7.05038635 124.66054053 -11.4420831 129.81680603 -31 128 C-45.9500154 125.83353237 -57.32523249 119.62286427 -68 109 C-68.78503906 108.24976563 -69.57007813 107.49953125 -70.37890625 106.7265625 C-82.42547322 94.45577855 -87.98038143 76.9896859 -88 60 C-86.87928256 42.02776761 -80.02274312 25.80133267 -66.7265625 13.4765625 C-66.15679688 12.98929688 -65.58703125 12.50203125 -65 12 C-64.40960937 11.49210937 -63.81921875 10.98421875 -63.2109375 10.4609375 C-46.13040875 -3.24565964 -20.68184885 -8.14633095 0 0 Z M-63 31 C-72.18431959 44.90215955 -74.64871225 58.51338203 -71.53515625 74.75 C-71.08614872 77.01779674 -71.08614872 77.01779674 -70 79 C-65.32574202 78.38049844 -61.13924246 77.09254608 -56.76171875 75.40234375 C-56.05987961 75.13630844 -55.35804047 74.87027313 -54.63493347 74.59617615 C-52.31693753 73.71557118 -50.00221137 72.82669909 -47.6875 71.9375 C-46.05822534 71.31625454 -44.42882844 70.6953296 -42.79931641 70.07470703 C-28.39138202 64.57600654 -14.02469795 58.96948282 0.3293457 53.33178711 C8.51736353 50.11833019 16.70513247 46.93074473 25 44 C23.41101898 35.03079309 17.19895032 26.52539361 10 21 C-14.35035569 4.72121068 -44.24872315 8.49199066 -63 31 Z " fill="#000000" transform="translate(1682,78)"/>
<path d="M0 0 C1.37853149 0.00845947 1.37853149 0.00845947 2.78491211 0.01708984 C19.24530253 0.31058432 32.38221628 6.41621534 44.625 17.3125 C45.33527344 17.92867187 46.04554687 18.54484375 46.77734375 19.1796875 C55.48190668 27.23266127 61.76156461 38.82893099 64.625 50.3125 C64.48071289 53.34790039 64.48071289 53.34790039 63.625 56.3125 C61.53295898 57.74829102 61.53295898 57.74829102 58.68359375 58.75390625 C57.04366455 59.36129639 57.04366455 59.36129639 55.37060547 59.98095703 C54.13455566 60.42036621 52.89850586 60.85977539 51.625 61.3125 C49.55835887 62.10521125 47.4983354 62.91383523 45.43792725 63.72259521 C41.52923552 65.25279499 37.60722003 66.74833111 33.6875 68.25 C31.97866214 68.90604491 30.26984082 69.56213292 28.56103516 70.21826172 C15.03840945 75.40604469 1.49696748 80.54392923 -12.05444336 85.65600586 C-12.77818649 85.92914108 -13.50192963 86.20227631 -14.24760437 86.48368835 C-15.64979805 87.0125785 -17.05222621 87.54084747 -18.45491028 88.06843567 C-21.71437468 89.29662001 -24.9664547 90.53958425 -28.20605469 91.81933594 C-29.37297852 92.27856445 -30.53990234 92.73779297 -31.7421875 93.2109375 C-32.7616748 93.61747559 -33.78116211 94.02401367 -34.83154297 94.44287109 C-37.375 95.3125 -37.375 95.3125 -40.375 95.3125 C-33.92240882 105.41106749 -24.03460353 112.23509837 -12.37890625 115.03125 C2.73750429 117.78958662 16.16951032 115.37620568 29.14453125 107.125 C38.01693926 100.64185462 43.36163 93.36388889 47.625 83.3125 C47.95242188 82.5596875 48.27984375 81.806875 48.6171875 81.03125 C49.29287568 79.46107938 49.96009781 77.88726835 50.625 76.3125 C50.955 75.9825 51.285 75.6525 51.625 75.3125 C53.5859375 75.36328125 53.5859375 75.36328125 56 75.625 C56.79148437 75.70363281 57.58296875 75.78226562 58.3984375 75.86328125 C60.625 76.3125 60.625 76.3125 63.625 78.3125 C63.625 90.71579819 56.31668195 102.5995051 47.81640625 111.21484375 C47.09324219 111.90707031 46.37007812 112.59929687 45.625 113.3125 C45.03589844 113.93253906 44.44679688 114.55257812 43.83984375 115.19140625 C32.51508317 126.31705016 16.09151425 131.14242184 0.625 131.5625 C-17.80434169 131.34895027 -31.6441114 125.60491456 -45.375 113.3125 C-46.02210937 112.77109375 -46.66921875 112.2296875 -47.3359375 111.671875 C-58.63743924 101.54654765 -64.84406779 84.91331928 -65.81640625 70.0546875 C-66.47763691 51.61831408 -61.68191495 36.07817848 -49.68359375 21.7890625 C-36.04339386 7.15642844 -20.00076653 -0.12955063 0 0 Z M-38.375 30.7890625 C-47.58893113 42.41445217 -52.63327665 55.4019217 -51.375 70.3125 C-50.55167253 74.36690911 -49.52214636 78.33845725 -48.375 82.3125 C-43.66076203 81.76673033 -39.61649665 80.83464303 -35.2109375 79.08203125 C-34.02483887 78.61571289 -32.83874023 78.14939453 -31.61669922 77.66894531 C-30.98858337 77.41810181 -30.36046753 77.1672583 -29.71331787 76.90881348 C-26.28372552 75.53962067 -22.84409913 74.19594963 -19.40625 72.84765625 C-18.31689651 72.41916885 -18.31689651 72.41916885 -17.20553589 71.98202515 C-8.58382685 68.59607006 0.08290033 65.33007047 8.75 62.0625 C11.10059067 61.1752313 13.45107563 60.28768294 15.80155945 59.40013123 C17.3076298 58.83146378 18.81374267 58.26290893 20.31990051 57.69447327 C29.42988896 54.25558486 38.52856527 50.78705751 47.625 47.3125 C43.22556382 34.54736671 34.43446963 24.94635626 22.3125 19 C16.47406347 16.4688859 10.95323223 14.92679681 4.625 14.3125 C3.54025391 14.20615234 3.54025391 14.20615234 2.43359375 14.09765625 C-12.8968858 13.39183307 -27.97783693 19.58917728 -38.375 30.7890625 Z " fill="#000000" transform="translate(1075.375,74.6875)"/>
<path d="M0 0 C4.29 0 8.58 0 13 0 C13.33 48.18 13.66 96.36 14 146 C23.23481086 137.30841331 32.31695049 128.74000663 41.21484375 119.75390625 C44.03618357 116.96422242 46.95302249 114.36895561 49.9765625 111.8046875 C53.09560927 109.02283498 55.99589641 106.02465145 58.9296875 103.05078125 C62.1739681 99.77946498 65.53635165 96.73021431 69.0390625 93.7421875 C71.28631885 91.7456211 73.38894927 89.63987054 75.5 87.5 C79.49725077 83.45450655 83.63572406 79.64576709 88 76 C88.69996094 75.27941406 89.39992188 74.55882813 90.12109375 73.81640625 C94.31315947 71.17148012 97.96807404 71.56214754 102.8125 71.75 C103.69615234 71.76804687 104.57980469 71.78609375 105.49023438 71.8046875 C107.66062543 71.85161487 109.83045519 71.92335269 112 72 C112 75 112 75 110.63671875 76.4375 C109.99347656 76.953125 109.35023437 77.46875 108.6875 78 C105.09594327 81.00038014 101.78431897 84.16529399 98.5 87.5 C94.83252307 91.21941356 91.06843679 94.73674241 87.09375 98.125 C84.46014473 100.48345248 81.98173486 102.98445404 79.5 105.5 C75.83412564 109.21581815 72.07474177 112.73262738 68.1015625 116.1171875 C65.42198538 118.51784953 62.90081384 121.06526554 60.375 123.625 C56.72521077 127.31539884 53.08360542 130.7993363 49 134 C53.44948003 139.32684228 58.14221739 144.294782 63.0625 149.1875 C63.75666016 149.88552734 64.45082031 150.58355469 65.16601562 151.30273438 C68.02436954 154.15565932 70.82140342 156.85912525 73.99609375 159.36328125 C74.65738281 159.90339844 75.31867188 160.44351563 76 161 C76 161.66 76 162.32 76 163 C76.55413574 163.22743896 77.10827148 163.45487793 77.67919922 163.68920898 C80.67399705 165.38067433 82.72366236 167.51782362 85.1328125 169.97265625 C85.61072235 170.45576767 86.0886322 170.93887909 86.58102417 171.43663025 C88.10053614 172.97389041 89.6131639 174.51769326 91.125 176.0625 C92.64484559 177.60997477 94.16613419 179.15595926 95.69039917 180.69908142 C97.06918742 182.09570801 98.44316065 183.49708323 99.81689453 184.89868164 C101.81680452 187.03259545 101.81680452 187.03259545 104 188 C104 188.66 104 189.32 104 190 C104.99 190.33 105.98 190.66 107 191 C107 191.66 107 192.32 107 193 C108.98 193.99 108.98 193.99 111 195 C110.67 195.99 110.34 196.98 110 198 C107.45767658 198.08152344 104.91800798 198.14073716 102.375 198.1875 C101.66214844 198.21263672 100.94929688 198.23777344 100.21484375 198.26367188 C94.23101326 198.34601817 90.23140566 196.93779965 85.625 192.9375 C84 191 84 191 84 189 C83.01 188.67 82.02 188.34 81 188 C81 187.34 81 186.68 81 186 C80.14849365 185.63853882 80.14849365 185.63853882 79.27978516 185.26977539 C76.54356404 183.74577817 74.71368193 181.92221708 72.5234375 179.68359375 C71.688125 178.83732422 70.8528125 177.99105469 69.9921875 177.11914062 C68.69667969 175.79172852 68.69667969 175.79172852 67.375 174.4375 C65.65585815 172.68402618 63.93460987 170.93261425 62.2109375 169.18359375 C61.45087402 168.40556396 60.69081055 167.62753418 59.90771484 166.82592773 C58.12442375 164.93913872 58.12442375 164.93913872 56 164 C56 163.34 56 162.68 56 162 C55.4112207 161.73719238 54.82244141 161.47438477 54.21582031 161.20361328 C51.89660759 159.94383819 50.39050597 158.61995979 48.546875 156.7421875 C47.928125 156.11699219 47.309375 155.49179688 46.671875 154.84765625 C45.72054688 153.87119141 45.72054688 153.87119141 44.75 152.875 C44.1003125 152.21628906 43.450625 151.55757812 42.78125 150.87890625 C41.18288273 149.25703357 39.58938103 147.6306719 38 146 C32.70719226 149.20850826 28.62091002 153.14329012 24.3125 157.5625 C23.64927734 158.23474609 22.98605469 158.90699219 22.30273438 159.59960938 C21.07358766 160.84608545 19.84651966 162.09461762 18.62231445 163.34594727 C17 165 17 165 15.32177734 166.28613281 C13.24027114 168.98509357 13.55908979 171.4991439 13.48828125 174.85546875 C13.47033005 175.51710526 13.45237885 176.17874176 13.43388367 176.86042786 C13.37979102 178.96938747 13.34589069 181.07812099 13.3125 183.1875 C13.27932573 184.61917208 13.24483595 186.05081433 13.20898438 187.48242188 C13.12159113 190.98831349 13.06152321 194.49317716 13 198 C8.71 198 4.42 198 0 198 C-0.79945163 193.20329021 -1.1417932 188.84739157 -1.12698364 184.03410339 C-1.12854363 183.24972391 -1.13010362 182.46534443 -1.13171089 181.65719587 C-1.13568782 179.03861582 -1.13254414 176.42009412 -1.12939453 173.80151367 C-1.13074998 171.92050136 -1.13253073 170.03948932 -1.13470459 168.15847778 C-1.13926022 163.05768232 -1.13749745 157.9569071 -1.1343255 152.85611129 C-1.13179413 147.52210037 -1.13414144 142.18809119 -1.13571167 136.8540802 C-1.13753029 127.9021473 -1.13513426 118.95022266 -1.13037109 109.99829102 C-1.12492076 99.63490775 -1.12669795 89.27154414 -1.1321975 78.90816134 C-1.13672746 70.01722615 -1.13738 61.12629689 -1.13475883 52.23536092 C-1.13319648 46.92182392 -1.13300132 41.60829617 -1.13629532 36.29475975 C-1.13917261 31.30517144 -1.13720098 26.31560864 -1.13140106 21.3260231 C-1.13007306 19.48973572 -1.13046826 17.6534462 -1.13266373 15.81715965 C-1.13537344 13.32173641 -1.13199643 10.82639626 -1.12698364 8.33097839 C-1.12921436 7.59481283 -1.13144509 6.85864726 -1.13374341 6.10017365 C-1.11415041 1.11415041 -1.11415041 1.11415041 0 0 Z " fill="#000000" transform="translate(1246,5)"/>
<path d="M0 0 C10.79253984 8.50154034 19.19288847 18.82718032 23.9296875 31.84375 C24.24679687 32.63265625 24.56390625 33.4215625 24.890625 34.234375 C30.39557504 50.29468795 27.50559463 68.87595635 20.4296875 83.84375 C12.84584895 98.92916902 -0.35290623 110.69102869 -16.0703125 116.84375 C-33.01223901 121.76894393 -51.17543447 121.26956401 -67.5 114.265625 C-85.10320783 104.52768025 -96.65412056 89.54367513 -102.8203125 70.53125 C-107.13558722 53.27015114 -104.05243453 34.82529508 -95.19482422 19.61376953 C-89.98347018 11.41092177 -83.28341773 4.06871923 -75.0703125 -1.15625 C-74.15572266 -1.80980469 -74.15572266 -1.80980469 -73.22265625 -2.4765625 C-52.15909706 -16.92261747 -20.22616684 -14.20463626 0 0 Z M-77.6953125 20.40625 C-86.81876183 31.33737577 -91.23228519 44.71266283 -90.0703125 58.84375 C-88.15481602 72.80946071 -81.77704728 85.80302936 -70.72265625 94.7421875 C-58.96770223 103.35400853 -46.37344801 107.45848364 -31.81640625 105.37890625 C-17.59267745 102.74025623 -6.04414124 96.75847158 2.96484375 85.2421875 C11.9925214 71.94025908 14.71081014 56.77387127 11.765625 40.99609375 C8.27997824 27.85162207 -1.28812273 15.69884223 -13.0703125 8.84375 C-35.69884986 -2.0471957 -60.28264114 2.29707178 -77.6953125 20.40625 Z " fill="#000000" transform="translate(1468.0703125,86.15625)"/>
<path d="M0 0 C0.92353271 0.00563965 1.84706543 0.0112793 2.79858398 0.01708984 C19.30241232 0.30991139 32.39377216 6.41334862 44.6875 17.3125 C45.62529297 18.10914063 45.62529297 18.10914063 46.58203125 18.921875 C58.47941153 29.77185611 64.6413251 46.11460122 65.890625 61.875 C66.25584698 80.8665432 59.49588972 98.42730607 46.69140625 112.40625 C33.24130014 125.20089285 16.22545435 131.83243855 -2.29296875 131.51953125 C-21.69577146 130.18919678 -37.11567348 123.34843861 -50.5625 108.9375 C-62.12354111 95.32530644 -66.91882653 79.18385713 -66.56640625 61.421875 C-65.01337548 42.40322132 -56.55561326 26.86102599 -42.3125 14.3125 C-30.22625649 4.24717059 -15.54213421 -0.09971125 0 0 Z M-35.73046875 27.5234375 C-48.00725101 41.40681101 -52.54996202 54.596623 -51.54638672 72.91455078 C-50.30106278 85.68237096 -43.70184452 96.40367124 -34.5625 105.125 C-23.78920309 113.96462823 -10.41379144 117.98591943 3.37890625 117.06640625 C17.5549258 115.4499681 28.93224078 110.69834413 38.9375 100.1875 C48.78399222 87.70764358 51.70295374 73.89890898 50.6875 58.3125 C48.82730811 45.32242053 42.51785173 33.75636449 32.37109375 25.40625 C12.53261434 10.75247491 -17.15423286 9.93479896 -35.73046875 27.5234375 Z " fill="#000000" transform="translate(669.3125,74.6875)"/>
<path d="M0 0 C1.45435225 2.17208452 2.26203399 4.26934029 3.140625 6.734375 C3.85025391 8.33732422 3.85025391 8.33732422 4.57421875 9.97265625 C20.86285436 47.7899125 20.86285436 47.7899125 15.078125 62.421875 C7.87823254 71.01529504 -2.71678686 77.14257669 -13.859375 78.734375 C-34.12930151 79.2686729 -54.36965675 67.31417823 -70.859375 56.734375 C-71.519375 56.404375 -72.179375 56.074375 -72.859375 55.734375 C-72.29408301 51.71740297 -71.08230925 49.15410512 -68.796875 45.8203125 C-68.1692627 44.89951904 -67.54165039 43.97872559 -66.89501953 43.0300293 C-66.22325684 42.06621338 -65.55149414 41.10239746 -64.859375 40.109375 C-64.17601074 39.12042236 -63.49264648 38.13146973 -62.78857422 37.11254883 C-58.10102175 30.38314158 -53.36046244 23.82902872 -47.859375 17.734375 C-47.15941406 16.94160156 -46.45945313 16.14882812 -45.73828125 15.33203125 C-36.71947693 5.67017493 -13.71860252 -9.3378723 0 0 Z " fill="#000000" transform="translate(297.859375,73.265625)"/>
<path d="M0 0 C6.37922234 5.39419536 11.47058779 11.78676336 14.125 19.75 C14.125 21.07 14.125 22.39 14.125 23.75 C12.90273359 24.28682668 11.67171915 24.80375532 10.4375 25.3125 C9.75300781 25.60253906 9.06851563 25.89257812 8.36328125 26.19140625 C5.49763395 26.90656779 3.90540663 26.75823052 1.125 25.75 C-0.68359375 23.640625 -0.68359375 23.640625 -2.3125 21 C-7.17623816 13.63611133 -12.37156979 9.30305796 -21.23046875 7.1875 C-30.24090859 5.69685116 -39.43232053 5.96877005 -47.1015625 11.296875 C-52.03667673 15.3526416 -55.44865941 18.93452156 -56.18359375 25.51171875 C-56.45101969 31.97046042 -56.03308878 37.58018374 -51.875 42.75 C-46.49610506 48.05753315 -39.94348831 50.886403 -33.1875 54.125 C-3.57829188 68.35921391 -3.57829188 68.35921391 2.18359375 81.04296875 C4.9063555 88.87232102 4.66303093 96.90013385 2.125 104.75 C-2.22506616 113.28282208 -10.00751265 118.64971307 -18.875 121.75 C-27.71304199 124.27997385 -37.27783018 122.49304048 -45.43359375 118.49609375 C-52.01444091 114.4232929 -56.75882238 108.84397117 -59.875 101.75 C-60 99 -60 99 -59.875 96.75 C-51.28125 92.625 -51.28125 92.625 -46.875 93.75 C-45.11992202 95.89023226 -43.73743073 98.08454948 -42.3671875 100.48828125 C-39.71883885 104.50240132 -36.76089613 106.10628397 -32.125 107.125 C-26.10393833 108.17868579 -22.07814852 106.92032503 -17.08203125 103.53515625 C-14.36549635 101.41225843 -12.97903568 100.06210705 -11.875 96.75 C-11.50673776 91.13400084 -11.65943993 87.57334011 -14.875 82.75 C-18.90255395 79.07341443 -22.71076653 76.61600899 -27.671875 74.26171875 C-28.97405746 73.63106401 -30.27613753 73.00019782 -31.578125 72.36914062 C-33.59431448 71.40422903 -35.61235155 70.44348433 -37.6328125 69.48754883 C-49.96045867 63.63040615 -64.04646306 56.2081908 -69.75 43 C-73.14493536 32.24585694 -72.34549108 21.60916096 -67.5625 11.5 C-62.15462542 1.496995 -55.14178894 -3.85916709 -44.27197266 -7.14233398 C-28.87624485 -11.29334343 -13.18075736 -9.55771613 0 0 Z " fill="#000000" transform="translate(819.875,83.25)"/>
<path d="M0 0 C1.93166016 0.01740234 1.93166016 0.01740234 3.90234375 0.03515625 C5.19269531 0.04417969 6.48304687 0.05320312 7.8125 0.0625 C8.81152344 0.07410156 9.81054688 0.08570313 10.83984375 0.09765625 C10.8431539 1.03764686 10.84646404 1.97763746 10.8498745 2.94611263 C10.93091532 25.83186484 11.02324515 48.71755036 11.12737083 71.6032095 C11.1774649 82.67059895 11.22390821 93.73798112 11.26171875 104.80541992 C11.29468868 114.45325202 11.33454756 124.10102702 11.38263381 133.74879605 C11.40784903 138.85587342 11.42964501 143.96291316 11.44318771 149.07003593 C11.45605322 153.88069808 11.4781559 158.69123085 11.50722694 163.50182152 C11.51626767 165.26377714 11.52198473 167.02575357 11.52405739 168.78773117 C11.53854883 179.23928825 11.89642676 188.23911378 15.83984375 198.09765625 C10.55984375 198.09765625 5.27984375 198.09765625 -0.16015625 198.09765625 C-8.44952956 181.51890963 -4.436748 155.35461971 -4.39587569 137.16897607 C-4.38699418 132.37690896 -4.38885442 127.58484405 -4.38923645 122.79277039 C-4.3883058 114.77190495 -4.37969428 106.75107783 -4.3659668 98.73022461 C-4.3501455 89.45149736 -4.3449725 80.17281164 -4.34570235 70.89407188 C-4.3463761 60.99061792 -4.33945659 51.08717998 -4.33025575 41.18373084 C-4.32812266 38.33281185 -4.3274144 35.48189544 -4.32701683 32.63097572 C-4.32601654 28.1714169 -4.31994599 23.71189326 -4.30985069 19.25234604 C-4.30691871 17.61278053 -4.30570173 15.97321098 -4.30627823 14.33364296 C-4.30676536 12.10608306 -4.30114924 9.87862328 -4.29386902 7.65107727 C-4.29219317 6.40221395 -4.29051733 5.15335062 -4.2887907 3.86664295 C-4.10557357 -0.07729117 -4.0060274 0.12379566 0 0 Z " fill="#000000" transform="translate(1563.16015625,4.90234375)"/>
<path d="M0 0 C0.74056641 0.00451172 1.48113281 0.00902344 2.24414062 0.01367188 C4.05862899 0.02537825 5.87307534 0.04331102 7.6875 0.0625 C7.6875 4.6825 7.6875 9.3025 7.6875 14.0625 C6.09035156 14.19205078 6.09035156 14.19205078 4.4609375 14.32421875 C-11.17563122 15.76285555 -25.18034608 19.46247482 -36.37109375 31.2265625 C-43.01877491 39.3181486 -47.43252796 47.96098308 -47.51782227 58.47143555 C-47.53267166 59.59863007 -47.53267166 59.59863007 -47.54782104 60.74859619 C-47.57940496 63.23210501 -47.60418116 65.71563296 -47.62890625 68.19921875 C-47.64947846 69.92129513 -47.67047501 71.6433665 -47.69187927 73.36543274 C-47.74707234 77.89783666 -47.79649382 82.43028594 -47.84472656 86.96276855 C-47.89496176 91.58785031 -47.95063729 96.2128662 -48.00585938 100.83789062 C-48.11340713 109.91270414 -48.21485964 118.98757486 -48.3125 128.0625 C-52.9325 128.0625 -57.5525 128.0625 -62.3125 128.0625 C-62.3125 86.4825 -62.3125 44.9025 -62.3125 2.0625 C-58.0225 2.0625 -53.7325 2.0625 -49.3125 2.0625 C-47.65386748 7.03839756 -47.07709233 9.46915467 -47.1875 14.4375 C-47.20554687 15.49710938 -47.22359375 16.55671875 -47.2421875 17.6484375 C-47.26539063 18.44507812 -47.28859375 19.24171875 -47.3125 20.0625 C-46.89742187 19.65 -46.48234375 19.2375 -46.0546875 18.8125 C-33.50790829 7.05317555 -17.25399785 -0.20044859 0 0 Z " fill="#000000" transform="translate(600.3125,74.9375)"/>
<path d="M0 0 C0 4.62 0 9.24 0 14 C-1.86591797 14.14695312 -1.86591797 14.14695312 -3.76953125 14.296875 C-21.37688041 15.81932828 -35.21848117 20.03119498 -47 34 C-55.47848653 45.70107869 -56.4572858 57.1528007 -56.51171875 71.1640625 C-56.52859271 72.8088818 -56.54674654 74.45368842 -56.56611633 76.09848022 C-56.6133279 80.39569128 -56.6433228 84.69285089 -56.66955566 88.99023438 C-56.69950793 93.38812412 -56.74598732 97.7858371 -56.79101562 102.18359375 C-56.87671995 110.78897505 -56.94421011 119.39437298 -57 128 C-61.29 128 -65.58 128 -70 128 C-70.83489359 124.66042564 -71.12553836 122.34493022 -71.12698364 118.97677612 C-71.12980347 117.9644693 -71.13262329 116.95216248 -71.13552856 115.90917969 C-71.13350433 114.80461426 -71.1314801 113.70004883 -71.12939453 112.56201172 C-71.13114685 111.39421173 -71.13289917 110.22641174 -71.13470459 109.02322388 C-71.13911014 105.15869669 -71.13619002 101.29421516 -71.1328125 97.4296875 C-71.13348582 94.74976545 -71.13445446 92.0698448 -71.13571167 89.3899231 C-71.13753022 83.77280175 -71.13513475 78.15569356 -71.13037109 72.53857422 C-71.12492378 66.04017392 -71.12669579 59.54180496 -71.1321975 53.04340541 C-71.13673125 47.46541763 -71.13737805 41.8874393 -71.13475883 36.30945027 C-71.13319818 32.97719731 -71.13338808 29.64496238 -71.13629532 26.31270981 C-71.13882284 22.60151774 -71.13498004 18.89038671 -71.12939453 15.17919922 C-71.13141876 14.07058533 -71.13344299 12.96197144 -71.13552856 11.81976318 C-71.13270874 10.81309601 -71.12988892 9.80642883 -71.12698364 8.76925659 C-71.1264181 7.45243299 -71.1264181 7.45243299 -71.12584114 6.10900688 C-71 4 -71 4 -70 2 C-65.71 2 -61.42 2 -57 2 C-56.67 8.27 -56.34 14.54 -56 21 C-54.515 19.515 -53.03 18.03 -51.5 16.5 C-36.96605724 2.8451354 -19.30048997 -0.61743274 0 0 Z " fill="#000000" transform="translate(1233,75)"/>
<path d="M0 0 C4.29 0 8.58 0 13 0 C13.01030746 1.94453568 13.02061493 3.88907135 13.03123474 5.89253235 C13.12949111 24.32348115 13.23221827 42.7544004 13.33933926 61.18529987 C13.394284 70.65810876 13.44769578 80.13092136 13.49731445 89.60375977 C13.54063788 97.87397248 13.58702512 106.1441618 13.63687855 114.41433781 C13.66309904 118.78086404 13.68793047 123.1473868 13.70907402 127.51394081 C13.78711381 143.39877249 13.8807642 159.28544349 14.33227539 175.16479492 C14.35354964 176.21622586 14.37482389 177.2676568 14.39674282 178.35094929 C14.6336916 185.25603996 15.90768075 191.4193576 18 198 C15.56065775 198.13501894 13.12875896 198.23403897 10.6875 198.3125 C9.65206055 198.3753418 9.65206055 198.3753418 8.59570312 198.43945312 C6.57421875 198.48828125 6.57421875 198.48828125 3 198 C-0.48809888 193.88913054 -0.44169359 189.64942197 -0.43237305 184.49951172 C-0.44765203 183.22409421 -0.44765203 183.22409421 -0.46323967 181.92291069 C-0.49351769 179.09177012 -0.50267456 176.2609694 -0.51171875 173.4296875 C-0.52871671 171.42147769 -0.54696707 169.41327814 -0.56639099 167.40509033 C-0.61465961 162.01247776 -0.64432822 156.61991177 -0.66996002 151.22714996 C-0.69334223 146.75846323 -0.72710263 142.28988116 -0.76107025 137.82126427 C-0.86184813 124.55009852 -0.93113002 111.27889948 -0.98709869 98.00747681 C-0.99934083 95.15366215 -1.01250182 92.29985359 -1.02606201 89.44604492 C-1.07359437 79.35288839 -1.10869788 69.25980431 -1.12204361 59.16654205 C-1.12494484 57.16308955 -1.1291559 55.15963909 -1.13339233 53.15618896 C-1.16116834 35.41366767 -0.74488474 17.72622073 0 0 Z " fill="#000000" transform="translate(1518,5)"/>
<path d="M0 0 C2.9929127 2.76268865 4.21290959 4.72751341 4.80859375 8.765625 C4.95098107 14.62863227 4.36964329 18.5748943 1.1171875 23.49609375 C-1.16246324 25.87647324 -3.78388535 27.49893398 -6.5625 29.25 C-4.44051168 31.39888676 -2.31510401 33.54418583 -0.1875 35.6875 C0.41578125 36.29916016 1.0190625 36.91082031 1.640625 37.54101562 C2.22070312 38.12431641 2.80078125 38.70761719 3.3984375 39.30859375 C4.19967041 40.11768188 4.19967041 40.11768188 5.01708984 40.94311523 C6.42402388 42.35846977 6.42402388 42.35846977 8.4375 43.25 C8.61925781 42.12851562 8.61925781 42.12851562 8.8046875 40.984375 C8.97226563 39.99953125 9.13984375 39.0146875 9.3125 38 C9.47492188 37.02546875 9.63734375 36.0509375 9.8046875 35.046875 C10.38605848 32.47735883 11.14590265 30.52928944 12.4375 28.25 C14.4175 28.25 16.3975 28.25 18.4375 28.25 C19.24935261 36.36852615 16.31545605 42.76731428 13.4375 50.25 C17.0675 53.55 20.6975 56.85 24.4375 60.25 C23.9425 61.24 23.9425 61.24 23.4375 62.25 C14.81507848 63.01681614 14.81507848 63.01681614 11.4375 61.13671875 C9.8125 59.75 9.8125 59.75 7.4375 57.25 C4.99114375 58.20614628 2.58515353 59.17877277 0.21875 60.3203125 C-7.28806292 63.79092806 -14.90559092 64.70515346 -22.9921875 62.625 C-28.40842277 60.33587415 -31.17317016 56.5106275 -33.5625 51.25 C-35.42676558 45.77371986 -33.85403964 41.3517405 -31.5625 36.25 C-29.03298112 32.37140439 -26.52452096 30.53829593 -22.5625 28.25 C-22.7790625 27.404375 -22.995625 26.55875 -23.21875 25.6875 C-26.99756338 10.29233437 -26.99756338 10.29233437 -24 3.9375 C-17.84471025 -2.84910152 -8.11801024 -3.9877945 0 0 Z M-15.4375 6.0625 C-18.10738647 8.81091255 -18.50544578 9.65663616 -18.875 13.5 C-18.51262632 17.8484842 -17.21317688 19.85382025 -14.5625 23.25 C-10.41165365 23.05693738 -8.837523 22.50668813 -5.75 19.625 C-3.28857037 16.31123066 -2.5625 13.41381722 -2.5625 9.25 C-3.39583333 6.75 -3.39583333 6.75 -5.5625 5.25 C-9.81025079 3.99140717 -11.63540806 3.66552899 -15.4375 6.0625 Z M-22.5625 37.25 C-25.53269507 40.32261559 -26.39175761 42.98144022 -26.5625 47.25 C-25.02807149 51.36872916 -23.46635102 54.13076659 -19.5625 56.25 C-14.8233058 57.44322528 -11.87751693 57.03813431 -7.3125 55.375 C-6.27609375 55.00632812 -5.2396875 54.63765625 -4.171875 54.2578125 C-1.63183794 53.32422188 -1.63183794 53.32422188 0.4375 52.25 C-0.15350661 48.84031029 -1.30226556 47.08904884 -3.65234375 44.578125 C-4.27173828 43.91425781 -4.89113281 43.25039063 -5.52929688 42.56640625 C-6.17962891 41.88449219 -6.82996094 41.20257813 -7.5 40.5 C-8.14646484 39.80261719 -8.79292969 39.10523438 -9.45898438 38.38671875 C-11.93074616 35.73568394 -11.93074616 35.73568394 -14.5625 33.25 C-17.90920438 33.25 -19.93443814 35.31917904 -22.5625 37.25 Z " fill="#000000" transform="translate(1143.5625,315.75)"/>
<path d="M0 0 C2.7734375 1.52734375 2.7734375 1.52734375 5 3 C5.66 3 6.32 3 7 3 C7.33 2.34 7.66 1.68 8 1 C9.98 1 11.96 1 14 1 C15.75166823 14.63798836 15.23919641 28.54183897 14.6875 42.25 C14.66510254 43.01119141 14.64270508 43.77238281 14.61962891 44.55664062 C14.29740124 51.15283041 13.00606208 56.85064777 8.375 61.8125 C2.09530047 66.40210755 -5.35938428 67.9305038 -13 67 C-16.2754164 66.43103095 -19.1593475 65.76778804 -22 64 C-23.39572791 61.56559085 -23.6245451 59.84272999 -24 57 C-22.7625 57.33 -21.525 57.66 -20.25 58 C-13.23837229 59.5286013 -6.08671991 60.4079775 0.5625 57.375 C4.26876372 53.76376869 5.89887247 50.82029548 6.1875 45.625 C6.125625 44.75875 6.06375 43.8925 6 43 C5.2575 43.474375 4.515 43.94875 3.75 44.4375 C-1.58000821 47.46591376 -6.9796121 47.51521545 -13 47 C-17.96023262 45.3153927 -21.33874773 42.5014799 -24 38 C-28.1309296 28.13534011 -27.84754695 19.88421544 -24 10 C-21.83994395 5.83417762 -19.50148383 2.88946233 -15.26171875 0.69140625 C-10.34346901 -0.81210015 -5.0558502 -0.71037895 0 0 Z M-14 9 C-18.16057575 14.08514814 -20.41727363 19.44778842 -19.8125 26.0625 C-18.87955173 31.67103786 -16.61208144 36.54093892 -12 40 C-7.93265162 41.15113633 -5.47280242 41.12227649 -1.375 40.0625 C3.59038401 37.02809866 6.03136947 33.37824846 7.6328125 27.79296875 C8.57252242 22.08473081 7.62233069 17.14495299 5 12 C1.97355796 8.45684835 -0.0430148 6.17790775 -4.75 5.75 C-8.62096346 6.04776642 -10.74870712 6.8795916 -14 9 Z " fill="#000000" transform="translate(655,332)"/>
<path d="M0 0 C32.4428125 0 32.4428125 0 41.2421875 7.125 C48.27268967 14.62420231 49.30764319 23.81792727 49.21875 33.640625 C48.62783432 42.71540157 45.43401702 50.01451239 38.6875 56.1875 C27.37024371 65.42508954 14.24423144 63 0 63 C0 42.21 0 21.42 0 0 Z M7 7 C7 23.5 7 40 7 57 C22.66570576 56.50249373 22.66570576 56.50249373 35.5 48.75 C41.30558273 40.7799081 42.01167014 32.74158779 41 23 C39.35909085 17.05749852 36.08042461 13.48656591 31 10 C22.71427134 5.62263392 16.17509525 5.85311309 7 7 Z " fill="#000000" transform="translate(552,315)"/>
<path d="M0 0 C2.18359375 1.10546875 2.18359375 1.10546875 5.43359375 3.10546875 C5.43359375 2.11546875 5.43359375 1.12546875 5.43359375 0.10546875 C7.41359375 0.10546875 9.39359375 0.10546875 11.43359375 0.10546875 C13.58256748 17.02863686 15.60071004 42.99149033 7.68359375 58.54296875 C4.61062895 62.04273422 1.81981574 64.75382268 -2.95703125 65.45776367 C-5.7124609 65.57079522 -8.43474605 65.55281204 -11.19140625 65.48046875 C-12.13242188 65.47917969 -13.0734375 65.47789062 -14.04296875 65.4765625 C-21.95031672 65.37547424 -21.95031672 65.37547424 -25.56640625 63.10546875 C-26.80484419 60.15227057 -26.60827782 59.23108347 -25.56640625 56.10546875 C-24.47328125 56.43546875 -23.38015625 56.76546875 -22.25390625 57.10546875 C-15.84898211 58.68679105 -9.48681281 58.95504157 -3.12890625 57.10546875 C0.40450627 54.34768337 2.04645906 51.33862116 3.43359375 47.10546875 C3.7716198 43.76970528 3.7716198 43.76970528 3.43359375 41.10546875 C2.04140625 42.06453125 2.04140625 42.06453125 0.62109375 43.04296875 C-4.47639247 46.34134219 -8.65680177 46.63733315 -14.56640625 46.10546875 C-20.04263177 44.46260109 -23.63913599 42.02714292 -26.56640625 37.10546875 C-30.67894053 28.33536553 -30.44131252 20.3974338 -27.41015625 11.33203125 C-25.26690282 5.67622358 -22.81646455 3.16800276 -17.56640625 0.10546875 C-12.03993211 -1.7366893 -5.53055365 -1.92769678 0 0 Z M-18.31640625 10.91796875 C-22.16109228 16.3646073 -22.98745297 20.44356877 -22.0390625 26.9296875 C-20.79831531 32.64122624 -18.31268806 35.81958134 -13.56640625 39.10546875 C-10.70032496 40.53850939 -8.75339842 40.4119103 -5.56640625 40.10546875 C-0.49582992 37.32162292 2.59933965 34.60823106 4.43359375 29.10546875 C4.60601083 26.67184403 4.70025143 24.23226279 4.74609375 21.79296875 C4.78347656 20.49746094 4.82085938 19.20195312 4.859375 17.8671875 C4.36836188 13.52915412 3.1548156 11.46961664 0.43359375 8.10546875 C-2.11957943 6.14148938 -3.8276762 5.21911953 -7.00390625 4.73046875 C-11.91189726 5.44871134 -14.87337571 7.39668752 -18.31640625 10.91796875 Z " fill="#000000" transform="translate(1065.56640625,332.89453125)"/>
<path d="M0 0 C2 1.1875 2 1.1875 4 4.1875 C6.22433284 3.11652493 8.11399909 2.09768254 10.0625 0.5625 C15.13600552 -1.81233237 20.74946048 -1.56939458 26.1640625 -0.30859375 C28.94041158 0.72515325 30.85567948 2.03355811 32.875 4.1875 C37.36725231 16.16683949 35.45018671 31.73143198 34 44.1875 C32.02 44.1875 30.04 44.1875 28 44.1875 C27.16860243 41.29806611 26.89126621 38.77542297 26.9375 35.7734375 C26.94604004 34.93417725 26.95458008 34.09491699 26.96337891 33.23022461 C26.97546387 32.34987549 26.98754883 31.46952637 27 30.5625 C27.69470344 18.32843409 27.69470344 18.32843409 24 7.1875 C21.00679418 6.15252117 18.14984291 5.93682046 15 6.1875 C11.25731953 8.57644498 9.86821914 10.88801595 8.91015625 15.09765625 C7.70196214 20.94348893 7.54719426 26.79853599 7.375 32.75 C7.33632812 33.85408203 7.29765625 34.95816406 7.2578125 36.09570312 C7.16440616 38.79281125 7.07863524 41.4899277 7 44.1875 C4.66705225 44.22991723 2.33297433 44.22842937 0 44.1875 C-1 43.1875 -1 43.1875 -1.08178711 40.83007812 C-1.0638208 39.80333984 -1.04585449 38.77660156 -1.02734375 37.71875 C-1.01509766 36.58953125 -1.00285156 35.4603125 -0.99023438 34.296875 C-0.95553371 31.92180727 -0.91658711 29.54679713 -0.87304688 27.171875 C-0.80906068 20.51731082 -1.00340823 14.5660506 -3 8.1875 C-6.71013399 5.71407734 -8.61060262 5.80246514 -13 6.1875 C-16.00567295 7.64971928 -16.80980269 8.76706384 -18.1875 11.8125 C-19.99472948 19.31945321 -20.21837508 27.06078247 -20.5625 34.75 C-20.60568359 35.66330078 -20.64886719 36.57660156 -20.69335938 37.51757812 C-20.79811757 39.74077991 -20.90029017 41.96406707 -21 44.1875 C-22.98 44.1875 -24.96 44.1875 -27 44.1875 C-27 29.6675 -27 15.1475 -27 0.1875 C-25.02 0.1875 -23.04 0.1875 -21 0.1875 C-21 1.1775 -21 2.1675 -21 3.1875 C-19.88625 2.5275 -18.7725 1.8675 -17.625 1.1875 C-11.84317109 -1.7085493 -6.17470031 -1.67231467 0 0 Z " fill="#000000" transform="translate(1763,332.8125)"/>
<path d="M0 0 C1.98 0 3.96 0 6 0 C6 8.25 6 16.5 6 25 C8.660625 23.7625 8.660625 23.7625 11.375 22.5 C17.75788451 19.86113962 23.3195086 18.47277632 30.03515625 20.6640625 C34.66808909 22.92642885 37.28977883 26.2607304 39 31 C41.30515367 39.4681552 41.74167202 47.15726075 37.95703125 55.22265625 C34.85098837 60.60043276 31.03158674 64.98947109 25 67 C18.10569093 67.60476395 13.23959057 65.86407436 7 63 C6.505 63.99 6.505 63.99 6 65 C4.02 65 2.04 65 0 65 C0 43.55 0 22.1 0 0 Z M9.7734375 31.68359375 C6.36387464 37.38663954 5.29518526 42.37474141 6 49 C7.73827718 53.66590191 10.09904212 56.89696532 14 60 C17.55901156 60.95330667 20.02593587 61.20872803 23.625 60.4375 C28.17167071 57.68556773 30.46136966 54.41069852 32.3125 49.5625 C33.62423697 42.76531751 33.38792747 37.08808018 30 31 C27.32495756 27.64403766 24.80540024 26.12943932 20.5 25.4375 C15.77513181 26.19685382 12.64477474 27.74236334 9.7734375 31.68359375 Z " fill="#000000" transform="translate(419,312)"/>
<path d="M0 0 C1.98 0 3.96 0 6 0 C6 7.92 6 15.84 6 24 C9.3 22.68 12.6 21.36 16 20 C20.71838858 19.21178993 25.57894291 18.90164399 30.0234375 20.91796875 C34.78986986 24.51023119 35.66909929 28.86001436 36.53515625 34.4609375 C37.19352111 39.90321236 37.14582917 45.33789991 37.125 50.8125 C37.13080078 52.36614258 37.13080078 52.36614258 37.13671875 53.95117188 C37.13542969 54.94310547 37.13414062 55.93503906 37.1328125 56.95703125 C37.13168457 57.85397705 37.13055664 58.75092285 37.12939453 59.67504883 C37 62 37 62 36 65 C33.69 65 31.38 65 29 65 C28.19502138 61.49374818 27.90035292 58.31968149 27.97265625 54.7265625 C27.99102539 53.2415625 27.99102539 53.2415625 28.00976562 51.7265625 C28.04479028 49.66659405 28.08382249 47.60668967 28.12695312 45.546875 C28.39107433 36.17995052 28.39107433 36.17995052 24.3125 28.0625 C20.94503746 26.51528748 18.66297593 26.48589812 15 27 C10.30085059 30.65489399 8.35478042 34.28894604 7.58935547 40.13793945 C7.47938232 41.85823364 7.47938232 41.85823364 7.3671875 43.61328125 C7.24150391 45.4840332 7.24150391 45.4840332 7.11328125 47.39257812 C6.99533203 49.33293945 6.99533203 49.33293945 6.875 51.3125 C6.78863281 52.62541016 6.70226562 53.93832031 6.61328125 55.29101562 C6.4014752 58.52694133 6.19732547 61.76316432 6 65 C3.03 65.495 3.03 65.495 0 66 C0 44.22 0 22.44 0 0 Z " fill="#000000" transform="translate(323,312)"/>
<path d="M0 0 C0 1.98 0 3.96 0 6 C-0.55872803 5.97905273 -1.11745605 5.95810547 -1.69311523 5.93652344 C-4.27438673 5.85233706 -6.85536824 5.80102307 -9.4375 5.75 C-10.31599609 5.71648437 -11.19449219 5.68296875 -12.09960938 5.6484375 C-18.96883131 5.54704677 -25.20853938 6.72969417 -30.5559082 11.34204102 C-36.41845365 17.87731979 -38.18409117 25.42825488 -38 34 C-36.84589607 41.75928802 -34.70950856 47.43151251 -28.35546875 52.24609375 C-20.9531727 56.74980651 -11.85059225 55.7768245 -3.6875 54 C-1.8621875 53.505 -1.8621875 53.505 0 53 C0.3125 55.8125 0.3125 55.8125 0 59 C-6.3384525 64.25186064 -15.22998979 63.4723129 -23 63 C-31.05928145 61.8522776 -36.78062311 57.04546532 -42 51 C-47.53503836 42.08567506 -48.04632766 30.72056841 -45.84375 20.6640625 C-42.80272032 11.06229286 -36.75770088 4.54336376 -27.9140625 -0.09375 C-19.32710088 -3.54130336 -8.5929267 -3.27349588 0 0 Z " fill="#000000" transform="translate(1240,316)"/>
<path d="M0 0 C5.04264891 3.49106463 6.42357266 6.93636156 8.125 12.75 C8.34994141 13.48283203 8.57488281 14.21566406 8.80664062 14.97070312 C10.4375 20.36889723 10.4375 20.36889723 10.4375 22.6875 C-0.4525 22.6875 -11.3425 22.6875 -22.5625 22.6875 C-20.58744868 30.58770529 -19.85794548 33.28076738 -13.75 38.125 C-7.32451488 39.7772676 -0.54726765 36.89022698 5.4375 34.6875 C6.30326598 37.11164475 6.54777093 38.34415642 5.75 40.828125 C3.29620504 44.30433453 -0.55957333 44.84670262 -4.5625 45.6875 C-10.82881728 46.40199534 -17.13044175 46.17287643 -22.5625 42.6875 C-28.52757305 36.92126271 -30.22781754 30.83756249 -30.875 22.8125 C-30.69460761 16.27971846 -28.64986657 8.83455419 -24.5625 3.6875 C-17.15526068 -1.86792949 -8.8147168 -3.24752724 0 0 Z M-20.5625 10.6875 C-20.8925 12.6675 -21.2225 14.6475 -21.5625 16.6875 C-14.3025 16.6875 -7.0425 16.6875 0.4375 16.6875 C0.98376778 10.95304684 0.98376778 10.95304684 -1.4375 7.8125 C-5.23949033 5.22714658 -7.59890967 4.96035186 -12.1171875 5.203125 C-16.24313507 6.02040535 -17.83690896 7.47270031 -20.5625 10.6875 Z " fill="#000000" transform="translate(274.5625,333.3125)"/>
<path d="M0 0 C5.40688296 3.40168133 8.06932042 8.86005617 9.6875 14.875 C10.9906274 22.15497135 10.23956143 29.18217991 6.609375 35.6796875 C3.01760368 40.72114965 -1.55914647 44.29836205 -7.6875 45.5 C-14.04846562 46.08115134 -19.01089955 45.72787085 -24.6875 42.5 C-29.47358633 38.38173967 -33.75739746 33.8386425 -34.25390625 27.328125 C-34.28172916 25.80233643 -34.27943071 24.2757584 -34.25 22.75 C-34.23904297 21.95376221 -34.22808594 21.15752441 -34.21679688 20.3371582 C-33.9413246 12.82824308 -32.24807088 7.41931857 -27.13671875 1.79296875 C-20.39414417 -3.63398152 -7.71519486 -3.27712087 0 0 Z M-25.0625 11.4375 C-27.78365624 16.71974447 -27.42135965 22.74772639 -26.6875 28.5 C-24.58301091 32.94281029 -21.88240217 35.92585548 -17.6875 38.5 C-13.68205791 39.61627075 -11.35895839 40.1775376 -7.5 38.61328125 C-3.32177848 36.17854555 -0.74795183 33.97465593 1.3125 29.5 C1.62790185 26.75231001 1.77796861 24.30088151 1.75 21.5625 C1.76998047 20.87220703 1.78996094 20.18191406 1.81054688 19.47070312 C1.80567601 14.33193948 0.50862345 11.45964183 -2.6875 7.5 C-6.37609478 4.33834733 -9.76957042 3.96859583 -14.4765625 4.15625 C-19.45712281 4.93061273 -22.00372516 7.65427849 -25.0625 11.4375 Z " fill="#000000" transform="translate(1716.6875,333.5)"/>
<path d="M0 0 C0.69931641 -0.02900391 1.39863281 -0.05800781 2.11914062 -0.08789062 C8.03947793 -0.15988724 11.45489944 1.71918248 15.796875 5.83984375 C21.95145821 13.4487634 21.96768604 20.91173983 21.1875 30.3125 C20.0201458 35.25955782 18.39258889 39.00698704 14.9375 42.75 C7.80684723 46.80150726 1.45039138 48.37401013 -6.8125 47.3125 C-13.02091416 45.51729591 -17.25186824 41.62264633 -20.8125 36.3125 C-23.37333841 28.62998478 -22.64224596 18.0818165 -20 10.47265625 C-15.5074615 2.30037404 -8.79453365 0.11959928 0 0 Z M-13.75 13.8125 C-15.51301852 19.62009043 -16.24231974 26.59777223 -14.015625 32.3828125 C-12.91536271 34.16038005 -12.91536271 34.16038005 -10.8125 36.3125 C-10.296875 36.910625 -9.78125 37.50875 -9.25 38.125 C-5.98933277 40.81859467 -2.11250858 40.6537948 1.90625 40.58203125 C5.6048489 40.14503926 7.48347631 38.82787087 10.1875 36.3125 C14.04646842 30.98688314 15.10328574 25.77953018 14.1875 19.3125 C13.19844472 14.76775013 11.6592055 11.86474059 8.625 8.3125 C-0.1424681 3.21142765 -7.88286682 6.24200557 -13.75 13.8125 Z " fill="#000000" transform="translate(1606.8125,331.6875)"/>
<path d="M0 0 C1.34094727 -0.04930664 1.34094727 -0.04930664 2.70898438 -0.09960938 C6.97988385 -0.1344868 9.39950093 0.01762933 13.06640625 2.33984375 C18.51670151 10.79793405 17.16618963 20.91211708 16.6875 30.5625 C16.6291052 31.91401529 16.57180595 33.26557837 16.515625 34.6171875 C16.37530777 37.89125616 16.22401535 41.16442021 16.0625 44.4375 C13.0925 44.9325 13.0925 44.9325 10.0625 45.4375 C9.4025 44.4475 8.7425 43.4575 8.0625 42.4375 C7.093125 43.0975 6.12375 43.7575 5.125 44.4375 C0.74902033 46.90781111 -3.01011145 47.25732279 -7.9375 46.4375 C-12.68660421 45.04167633 -15.28713117 43.44261546 -18 39.25 C-19.13421583 34.63752228 -19.31863495 31.00125026 -17.9375 26.4375 C-12.67502535 19.10192927 -2.34380582 17.35234511 6.0625 15.4375 C7.0525 15.4375 8.0425 15.4375 9.0625 15.4375 C8.49474464 14.13891061 7.90758337 12.84879559 7.3125 11.5625 C6.82523438 10.48355469 6.82523438 10.48355469 6.328125 9.3828125 C4.7800773 7.00340585 3.77264852 6.26763558 1.0625 5.4375 C-1.39602609 5.76949875 -1.39602609 5.76949875 -3.875 6.6875 C-4.74769531 6.97753906 -5.62039063 7.26757812 -6.51953125 7.56640625 C-9.01850967 8.46668442 -11.49975686 9.38114464 -13.9375 10.4375 C-13.9375 7.7975 -13.9375 5.1575 -13.9375 2.4375 C-9.35458073 -0.17561957 -5.16479696 0.03336911 0 0 Z M0.125 24.375 C-0.61685547 24.55740234 -1.35871094 24.73980469 -2.12304688 24.92773438 C-6.13138249 25.89332949 -6.13138249 25.89332949 -9.9375 27.4375 C-10.60791929 33.67773245 -10.60791929 33.67773245 -7.875 39.0625 C-3.99825509 40.87714655 -2.02842523 40.60633578 2.0625 39.4375 C5.97457911 37.00331744 7.94113397 34.9229641 9.0625 30.4375 C9.20785921 27.74584841 9.15402668 25.13753693 9.0625 22.4375 C6.12706986 22.4375 2.98495891 23.66062824 0.125 24.375 Z " fill="#000000" transform="translate(745.9375,332.5625)"/>
<path d="M0 0 C3.75961402 4.93449341 4.2740625 7.95553624 4.1953125 14.01171875 C4.1924826 14.82872757 4.18965271 15.64573639 4.18673706 16.48750305 C4.17554541 19.09598459 4.1504429 21.7041223 4.125 24.3125 C4.11496888 26.08137525 4.10584326 27.85025588 4.09765625 29.61914062 C4.07560942 33.95455949 4.0410867 38.28972145 4 42.625 C2.02 42.625 0.04 42.625 -2 42.625 C-2 41.965 -2 41.305 -2 40.625 C-2.67804688 40.92535156 -3.35609375 41.22570312 -4.0546875 41.53515625 C-10.6670323 44.23687608 -15.99660319 45.57174842 -23 43.625 C-26.04570807 42.19500292 -28.45276758 40.71946484 -30 37.625 C-30.14851844 35.69140414 -30.22130833 33.75157903 -30.25 31.8125 C-30.27578125 30.77480469 -30.3015625 29.73710937 -30.328125 28.66796875 C-29.94786116 25.14147435 -29.1766634 23.41207553 -27 20.625 C-23.03340036 17.51854114 -18.73894221 16.74815704 -13.875 15.9375 C-13.15957031 15.80794922 -12.44414063 15.67839844 -11.70703125 15.54492188 C-8.76576233 15.02538933 -5.99211652 14.625 -3 14.625 C-4.12233295 9.97020466 -4.12233295 9.97020466 -6.1875 5.6875 C-9.25195199 3.89109711 -11.50263868 4.23013663 -15 4.625 C-17.43668239 5.54623344 -19.74849132 6.59327109 -22.08203125 7.75 C-24 8.625 -24 8.625 -26 8.625 C-26 5.985 -26 3.345 -26 0.625 C-18.25040264 -3.7223351 -7.43462042 -5.88574116 0 0 Z M-11.9375 21.875 C-13.77634766 22.22304688 -13.77634766 22.22304688 -15.65234375 22.578125 C-19.22461222 23.69524046 -20.77068684 24.65258245 -23 27.625 C-23 31.21184224 -22.42580211 33.04149341 -20.3125 35.9375 C-17.41570848 38.05137489 -15.58252131 38.55188732 -12 38.625 C-7.42741552 36.77419199 -5.24336562 33.95149084 -3 29.625 C-2.41256997 26.62910684 -2.13545482 23.67273338 -2 20.625 C-5.46204031 20.625 -8.53958655 21.20468759 -11.9375 21.875 Z " fill="#000000" transform="translate(1436,334.375)"/>
<path d="M0 0 C2.64 0 5.28 0 8 0 C12.61024816 10.45272854 16.30291157 21.19879669 20 32 C22.59365364 29.40634636 23.2906934 26.93850454 24.56640625 23.49609375 C24.80536118 22.85761002 25.0443161 22.21912628 25.29051208 21.56129456 C26.05301437 19.52191379 26.80820594 17.47992948 27.5625 15.4375 C28.32130365 13.39187283 29.08166585 11.34686029 29.84519958 9.30299377 C30.53647397 7.45127352 31.22257864 5.59762581 31.90844727 3.74389648 C33 1 33 1 34 0 C36.67058851 -0.14115161 39.32432238 -0.04247107 42 0 C38.18898926 10.22180067 34.34379012 20.42926901 30.37768555 30.59204102 C29.83264745 31.99307786 29.2909972 33.39543722 28.75268555 34.79907227 C18.75900867 60.84292582 18.75900867 60.84292582 12 65 C8.18894688 66.02408337 4.78366976 66.26122325 1 65 C1 63.02 1 61.04 1 59 C2.051875 58.95875 3.10375 58.9175 4.1875 58.875 C8.0927766 57.97870701 9.66683981 57.09906217 11.99755859 53.84594727 C14.31903546 49.57106014 15.41414602 45.23584162 14.51928711 40.40478516 C13.64442851 37.57046001 12.64024985 34.82599118 11.5625 32.0625 C11.19576172 31.06774658 10.82902344 30.07299316 10.45117188 29.0480957 C9.32719294 26.02123591 8.16968331 23.00946145 7 20 C6.64534668 19.0812207 6.29069336 18.16244141 5.92529297 17.21582031 C4.02617847 12.30371038 4.02617847 12.30371038 2.08422852 7.40844727 C0 2.20123075 0 2.20123075 0 0 Z " fill="#000000" transform="translate(1803,333)"/>
<path d="M0 0 C4.62834424 3.35554957 6.37308481 6.49521203 8.5 11.8125 C8.5 15.4425 8.5 19.0725 8.5 22.8125 C-1.73 22.8125 -11.96 22.8125 -22.5 22.8125 C-21.0122615 31.58709958 -21.0122615 31.58709958 -15.5 36.8125 C-9.74128918 39.57668119 -5.82354081 38.3928766 -0.05078125 36.44140625 C2.6161516 35.78386232 3.94959116 35.89865327 6.5 36.8125 C6.3125 39.125 6.3125 39.125 5.5 41.8125 C-0.49713661 46.35087365 -7.23060761 46.50107573 -14.5 45.8125 C-20.24608464 44.34729255 -24.43938378 41.88835936 -27.56640625 36.78125 C-31.42205206 28.65051574 -31.42572955 19.42792737 -28.5234375 10.96484375 C-26.07078191 5.59273683 -23.79835017 2.46167509 -18.5 -0.1875 C-12.5892363 -2.15775457 -5.87151456 -1.99212101 0 0 Z M-21.5 11.8125 C-21.5 13.7925 -21.5 15.7725 -21.5 17.8125 C-13.91 17.8125 -6.32 17.8125 1.5 17.8125 C-0.3474157 8.05834208 -0.3474157 8.05834208 -5.5 4.8125 C-12.53564834 3.63989194 -17.3583739 5.84239004 -21.5 11.8125 Z " fill="#000000" transform="translate(895.5,333.1875)"/>
<path d="M0 0 C1.01964844 -0.02578125 2.03929688 -0.0515625 3.08984375 -0.078125 C7.5897294 0.41857723 9.98663554 2.20530209 13.1862793 5.31225586 C15.74873281 9.32448789 15.57254222 12.39214071 15.453125 17.05078125 C15.44746521 17.88715622 15.44180542 18.72353119 15.43597412 19.58525085 C15.41366268 22.24492711 15.36347788 24.90323405 15.3125 27.5625 C15.29242815 29.37042319 15.27417858 31.17836759 15.2578125 32.98632812 C15.21381527 37.40807611 15.14482546 41.82880625 15.0625 46.25 C12.125 45.875 12.125 45.875 9.0625 45.25 C8.7325 44.59 8.4025 43.93 8.0625 43.25 C7.34964844 43.53875 6.63679688 43.8275 5.90234375 44.125 C-5.86179314 48.68498846 -5.86179314 48.68498846 -11.8125 46.58984375 C-15.37275119 44.87647286 -16.82549942 43.43200094 -18.9375 40 C-20.31678565 34.82767879 -20.43179464 31.09654605 -17.91015625 26.29296875 C-13.80741442 20.64426623 -8.59194304 19.36952272 -1.9375 18.25 C1.39260408 17.80214313 4.70923099 17.46094317 8.0625 17.25 C6.94016705 12.59520466 6.94016705 12.59520466 4.875 8.3125 C1.87225527 6.55227033 -0.52647174 6.90889717 -3.9375 7.25 C-6.30272558 8.17203709 -8.64151807 9.16698965 -10.9375 10.25 C-12.26026056 10.62308631 -13.58982077 10.98046415 -14.9375 11.25 C-15.25 7.9375 -15.25 7.9375 -14.9375 4.25 C-10.45700351 0.51625292 -5.6643279 0.08571492 0 0 Z M-10.3125 28.5 C-12.25015656 31.24673891 -12.25015656 31.24673891 -11.9375 34.9375 C-11.24366669 38.50539113 -11.24366669 38.50539113 -7.9375 40.25 C-3.12209376 40.72364652 -0.88635045 40.74199653 3.4375 38.5 C6.54387839 35.83738995 7.91756827 34.00077524 8.2578125 29.890625 C8.23460938 29.10171875 8.21140625 28.3128125 8.1875 27.5 C8.16042969 26.30117188 8.16042969 26.30117188 8.1328125 25.078125 C8.10960938 24.47484375 8.08640625 23.8715625 8.0625 23.25 C2.19866807 23.25 -5.7728207 24.58113154 -10.3125 28.5 Z " fill="#000000" transform="translate(109.9375,331.75)"/>
<path d="M0 0 C10.23 0 20.46 0 31 0 C31 1.98 31 3.96 31 6 C23.08 6 15.16 6 7 6 C7 13.26 7 20.52 7 28 C14.26 28 21.52 28 29 28 C29 29.98 29 31.96 29 34 C21.74 34 14.48 34 7 34 C7 41.59 7 49.18 7 57 C15.25 57 23.5 57 32 57 C32 58.65 32 60.3 32 62 C21.44 62 10.88 62 0 62 C0 41.54 0 21.08 0 0 Z " fill="#000000" transform="translate(1505,315)"/>
<path d="M0 0 C6.13836754 7.96328761 5.06658686 17.7045121 5.125 27.3125 C5.12983398 28.07731689 5.13466797 28.84213379 5.13964844 29.63012695 C5.1266905 33.86320667 4.83520777 37.83058977 4 42 C-0.75 43.125 -0.75 43.125 -3 42 C-3.01981934 41.18845459 -3.03963867 40.37690918 -3.06005859 39.54077148 C-3.15571837 35.83937251 -3.26523214 32.13850635 -3.375 28.4375 C-3.4059375 27.16068359 -3.436875 25.88386719 -3.46875 24.56835938 C-3.59821922 14.39804059 -3.59821922 14.39804059 -7.1875 5.0625 C-10.17296709 3.31239861 -12.62240688 3.65059382 -16 4 C-19.72297186 5.43842095 -20.78861662 6.62252968 -22.75 10.125 C-25.48394859 17.45396432 -25.21678248 25.83769715 -25.5625 33.5625 C-25.60568359 34.47580078 -25.64886719 35.38910156 -25.69335938 36.33007812 C-25.79811757 38.55327991 -25.90029017 40.77656707 -26 43 C-27.98 43 -29.96 43 -32 43 C-32 28.15 -32 13.3 -32 -2 C-30.02 -2 -28.04 -2 -26 -2 C-25.01 -0.515 -25.01 -0.515 -24 1 C-23.113125 0.360625 -22.22625 -0.27875 -21.3125 -0.9375 C-14.29124059 -5.30922755 -6.89399148 -4.59599432 0 0 Z " fill="#000000" transform="translate(170,335)"/>
<path d="M0 0 C4.004793 2.0023965 6.6587028 4.17998877 9 8 C9.97106418 10.91319254 10.19288137 13.03425472 10.31640625 16.078125 C10.35830078 17.07457031 10.40019531 18.07101562 10.44335938 19.09765625 C10.48267578 20.13792969 10.52199219 21.17820312 10.5625 22.25 C10.60568359 23.27480469 10.64886719 24.29960937 10.69335938 25.35546875 C11.32224513 40.86798398 11.32224513 40.86798398 10 45 C7.69 45 5.38 45 3 45 C2.19502138 41.49374818 1.90035292 38.31968149 1.97265625 34.7265625 C1.99102539 33.2415625 1.99102539 33.2415625 2.00976562 31.7265625 C2.04479028 29.66659405 2.08382249 27.60668967 2.12695312 25.546875 C2.32750684 16.22822352 2.32750684 16.22822352 -1.5625 8 C-5.48443138 6.39100251 -8.99519946 6.70931843 -13 8 C-21.8012405 16.57556767 -19.60929904 34.59502597 -20 46 C-21.98 46 -23.96 46 -26 46 C-26 31.15 -26 16.3 -26 1 C-24.02 1 -22.04 1 -20 1 C-20 2.32 -20 3.64 -20 5 C-19.47792969 4.6390625 -18.95585938 4.278125 -18.41796875 3.90625 C-12.31316703 0.05733823 -7.18166212 -1.21364523 0 0 Z " fill="#000000" transform="translate(1018,332)"/>
<path d="M0 0 C1.98 0 3.96 0 6 0 C6.01981934 0.61931396 6.03963867 1.23862793 6.06005859 1.87670898 C6.15635231 4.73067389 6.26560097 7.58400857 6.375 10.4375 C6.4059375 11.41138672 6.436875 12.38527344 6.46875 13.38867188 C6.81421437 21.99649252 8.55076342 29.77756292 11 38 C18.10017089 38.66591878 18.10017089 38.66591878 24.5625 36.375 C28.10479696 30.52250937 28.35987783 24.77693766 28.5625 18.125 C28.77754542 12.0213703 29.15058676 6.05119185 30 0 C31.98 0 33.96 0 36 0 C36 14.52 36 29.04 36 44 C34.02 44 32.04 44 30 44 C30 43.01 30 42.02 30 41 C28.39125 41.9590625 28.39125 41.9590625 26.75 42.9375 C20.81781619 46.28841421 14.99896692 46.92999231 8.3125 45.375 C4.56880636 43.14902 1.95563877 39.91127755 0 36 C-1.15431235 28.73722567 -1.15337256 21.396807 -1.125 14.0625 C-1.12886719 13.03576172 -1.13273437 12.00902344 -1.13671875 10.95117188 C-1.13542969 9.96826172 -1.13414062 8.98535156 -1.1328125 7.97265625 C-1.13168457 7.08843994 -1.13055664 6.20422363 -1.12939453 5.29321289 C-1 3 -1 3 0 0 Z " fill="#000000" transform="translate(370,333)"/>
<path d="M0 0 C1.98 0 3.96 0 6 0 C6.04487549 0.87213135 6.08975098 1.7442627 6.13598633 2.64282227 C6.31017772 5.90690434 6.49607078 9.16989639 6.68969727 12.43286133 C6.77082812 13.83982836 6.84741134 15.24706585 6.91918945 16.65454102 C7.0237385 18.6885608 7.14511382 20.72101624 7.26953125 22.75390625 C7.37164917 24.58417358 7.37164917 24.58417358 7.47583008 26.45141602 C8.13544149 30.91692687 9.19412933 35.45211085 12.75 38.5 C16.1327916 39.25173147 18.65216944 38.83695764 22 38 C25.70457777 35.49690691 26.53822902 32.79456291 27.54272461 28.54321289 C28.49568868 23.24314523 28.76524533 17.866832 29.125 12.5 C29.21136719 11.29601562 29.29773438 10.09203125 29.38671875 8.8515625 C29.59744278 5.90142603 29.8016943 2.95099283 30 0 C31.98 0 33.96 0 36 0 C36 14.52 36 29.04 36 44 C34.02 44 32.04 44 30 44 C30 43.01 30 42.02 30 41 C29.18208984 41.54140625 29.18208984 41.54140625 28.34765625 42.09375 C22.82206544 45.49411358 18.49256424 47.23174534 12 46 C7.60591658 44.60542388 4.70242067 42.75645303 1.5625 39.375 C-1.84840927 32.00743598 -1.15952357 23.17970719 -1.125 15.1875 C-1.12886719 14.27291016 -1.13273438 13.35832031 -1.13671875 12.41601562 C-1.13052126 8.15523876 -1.09634629 4.1504538 0 0 Z " fill="#000000" transform="translate(943,333)"/>
<path d="M0 0 C6.69040282 6.69040282 6.42775237 15.4170423 6.4375 24.4375 C6.27803555 30.78077651 5.88032089 37.10856764 5.4375 43.4375 C3.1275 43.4375 0.8175 43.4375 -1.5625 43.4375 C-1.60737549 42.49430908 -1.65225098 41.55111816 -1.69848633 40.5793457 C-1.87217289 37.06559951 -2.05807991 33.5529371 -2.25219727 30.0402832 C-2.33357217 28.52263323 -2.41012985 27.00471671 -2.48168945 25.48657227 C-2.58566636 23.29875477 -2.70718667 21.11249529 -2.83203125 18.92578125 C-2.90010986 17.61134033 -2.96818848 16.29689941 -3.03833008 14.94262695 C-3.57757658 11.33668285 -4.37230661 9.3221038 -6.5625 6.4375 C-9.5439281 5.1756971 -12.36014087 5.05479276 -15.5625 5.4375 C-19.35285709 8.17946045 -21.31198849 10.95650042 -22.5625 15.4375 C-23.46018773 21.5979677 -23.84942589 27.72127087 -24.125 33.9375 C-24.16818359 34.8553125 -24.21136719 35.773125 -24.25585938 36.71875 C-24.36083456 38.95822061 -24.46299248 41.19778092 -24.5625 43.4375 C-26.5425 43.4375 -28.5225 43.4375 -30.5625 43.4375 C-30.5625 28.9175 -30.5625 14.3975 -30.5625 -0.5625 C-28.5825 -0.5625 -26.6025 -0.5625 -24.5625 -0.5625 C-23.9025 0.4275 -23.2425 1.4175 -22.5625 2.4375 C-21.964375 1.963125 -21.36625 1.48875 -20.75 1 C-14.92868956 -3.15807889 -6.3245001 -2.77390355 0 0 Z " fill="#000000" transform="translate(1668.5625,333.5625)"/>
<path d="M0 0 C1.4540625 0.0309375 1.4540625 0.0309375 2.9375 0.0625 C2.95731934 0.66610352 2.97713867 1.26970703 2.99755859 1.89160156 C2.28140134 20.04013738 2.28140134 20.04013738 7.83203125 36.30859375 C10.60476871 38.61835093 12.33961907 38.99054238 15.9375 39.0625 C19.25199781 38.36408025 19.25199781 38.36408025 21.9375 36.0625 C25.66304151 29.01547764 25.67461289 20.77227669 26.125 13 C26.20685547 11.75283203 26.28871094 10.50566406 26.37304688 9.22070312 C26.57185059 6.16848131 26.75972191 3.11600634 26.9375 0.0625 C28.9175 0.0625 30.8975 0.0625 32.9375 0.0625 C32.9375 14.5825 32.9375 29.1025 32.9375 44.0625 C30.9575 44.0625 28.9775 44.0625 26.9375 44.0625 C26.9375 43.0725 26.9375 42.0825 26.9375 41.0625 C26.33164063 41.4234375 25.72578125 41.784375 25.1015625 42.15625 C19.00417564 45.53326426 13.92814804 47.37852873 6.9375 46.0625 C2.92054534 44.0175049 0.31651552 41.86599037 -2.0625 38.0625 C-2.58666992 35.39624023 -2.58666992 35.39624023 -2.79296875 32.37109375 C-2.87353516 31.26056641 -2.95410156 30.15003906 -3.03710938 29.00585938 C-3.10736328 27.84892578 -3.17761719 26.69199219 -3.25 25.5 C-3.33185547 24.37013672 -3.41371094 23.24027344 -3.49804688 22.07617188 C-4.47872561 7.76155868 -4.47872561 7.76155868 -4.0625 1.0625 C-3.0625 0.0625 -3.0625 0.0625 0 0 Z " fill="#000000" transform="translate(1343.0625,332.9375)"/>
<path d="M0 0 C0.72832031 -0.00773437 1.45664062 -0.01546875 2.20703125 -0.0234375 C7.62157931 -0.00342069 7.62157931 -0.00342069 9.875 2.25 C10 5.875 10 5.875 9.875 9.25 C8.885 8.92 7.895 8.59 6.875 8.25 C2.71673443 7.07520546 -0.80948474 6.89037373 -5.125 7.25 C-7.77851279 8.87634655 -8.04006162 9.91796815 -8.8125 12.9375 C-8.9671875 14.0821875 -8.9671875 14.0821875 -9.125 15.25 C-8.43664062 15.50265625 -7.74828125 15.7553125 -7.0390625 16.015625 C-3.68119753 17.43799139 -0.63672377 19.13959832 2.5 21 C3.62664063 21.65484375 4.75328125 22.3096875 5.9140625 22.984375 C9.23142002 25.52272244 10.45720121 27.34979194 11.875 31.25 C12.2746161 35.67484009 11.38929133 39.32031951 9.25 43.1875 C4.55299244 47.26648025 -0.92558271 47.58853306 -6.91015625 47.4453125 C-11.20580671 47.06650734 -14.99293836 46.38206164 -18.125 43.25 C-17.75 40.125 -17.75 40.125 -17.125 37.25 C-16.25617187 37.47816406 -15.38734375 37.70632813 -14.4921875 37.94140625 C-12.76355469 38.37259766 -12.76355469 38.37259766 -11 38.8125 C-9.86304688 39.10253906 -8.72609375 39.39257812 -7.5546875 39.69140625 C-4.06010616 40.26056927 -1.55296653 40.03666101 1.875 39.25 C2.99312009 36.55966436 2.99312009 36.55966436 2.875 33.25 C-0.00781556 29.45584274 -3.98920015 27.21402584 -8.25 25.25 C-12.51047582 23.22751731 -14.63003702 21.30431484 -17.125 17.25 C-17.91560116 12.26921267 -17.68129303 9.56700915 -14.875 5.375 C-10.85273202 0.03680485 -6.36567154 -0.06832563 0 0 Z " fill="#000000" transform="translate(828.125,331.75)"/>
<path d="M0 0 C0.33 2.31 0.66 4.62 1 7 C-0.04800781 7.12955078 -0.04800781 7.12955078 -1.1171875 7.26171875 C-6.62328747 7.88596432 -6.62328747 7.88596432 -10.6875 11.1875 C-11.07014353 14.63129179 -10.66475183 17.60976567 -10 21 C-7.03 21.66 -4.06 22.32 -1 23 C-1 24.65 -1 26.3 -1 28 C-4.3 28 -7.6 28 -11 28 C-11 40.87 -11 53.74 -11 67 C-13.64 67 -16.28 67 -19 67 C-19 54.46 -19 41.92 -19 29 C-20.98 29 -22.96 29 -25 29 C-26 28 -26 28 -26.0625 25.4375 C-26.041875 24.633125 -26.02125 23.82875 -26 23 C-24.02 22.67 -22.04 22.34 -20 22 C-19.96261719 21.11957031 -19.92523438 20.23914063 -19.88671875 19.33203125 C-19.82097656 18.17058594 -19.75523437 17.00914062 -19.6875 15.8125 C-19.62949219 14.66394531 -19.57148438 13.51539063 -19.51171875 12.33203125 C-18.96749007 8.7883132 -18.16489873 6.83414144 -16 4 C-10.6255571 1.21325183 -6.00961693 0 0 0 Z " fill="#000000" transform="translate(243,310)"/>
<path d="M0 0 C1.08571289 -0.00483398 1.08571289 -0.00483398 2.19335938 -0.00976562 C7.5449953 0.0449953 7.5449953 0.0449953 9.8125 2.3125 C9.9375 5.4375 9.9375 5.4375 9.8125 8.3125 C8.61753906 8.16941406 8.61753906 8.16941406 7.3984375 8.0234375 C-0.63962746 6.9666014 -0.63962746 6.9666014 -8.1875 9.3125 C-9.60637601 11.07125289 -9.60637601 11.07125289 -9.1875 13.3125 C-5.72291925 17.29418236 -2.18238235 19.62410474 2.5 22 C8.63194444 25.13194444 8.63194444 25.13194444 10.8125 27.3125 C11.96044572 32.95656648 11.96242769 36.83018439 9.8125 42.3125 C6.47354913 46.5216017 1.8744259 46.6532043 -3.1875 47.3125 C-7.61458828 47.71686397 -11.04572221 47.78824075 -15.1875 46.0625 C-17.1875 44.3125 -17.1875 44.3125 -18.0625 42.3125 C-18.1875 40.3125 -18.1875 40.3125 -17.1875 37.3125 C-16.46304688 37.54066406 -15.73859375 37.76882813 -14.9921875 38.00390625 C-7.6630102 40.2981422 -7.6630102 40.2981422 -0.1875 39.3125 C2.98790525 37.67114983 2.98790525 37.67114983 3.4375 35 C2.62165181 31.49185276 0.8213454 30.40758749 -2.1171875 28.4921875 C-4.14393711 27.33732263 -6.19419717 26.34958039 -8.3125 25.375 C-12.5200581 23.32852232 -14.68405303 21.3023686 -17.1875 17.3125 C-18.16072204 11.36503201 -16.55523326 8.04553053 -13.1875 3.3125 C-9.00682269 0.01236828 -5.13560013 -0.11619005 0 0 Z " fill="#000000" transform="translate(200.1875,331.6875)"/>
<path d="M0 0 C1.07217773 0.00773437 1.07217773 0.00773437 2.16601562 0.015625 C7.37588071 0.09419035 7.37588071 0.09419035 9.6875 1.25 C9.6875 3.56 9.6875 5.87 9.6875 8.25 C8.52992187 8.19199219 7.37234375 8.13398438 6.1796875 8.07421875 C4.64066552 8.02729735 3.10159967 7.98179974 1.5625 7.9375 C0.80195312 7.89560547 0.04140625 7.85371094 -0.7421875 7.81054688 C-4.8160184 7.7227488 -7.48603482 7.93539306 -10.7421875 10.51953125 C-15.79179185 15.8837766 -15.69642509 19.87728338 -15.55859375 27.109375 C-15.26225831 30.89117964 -14.67883647 33.25264047 -12.3125 36.25 C-7.83414999 39.37443024 -3.63714759 39.85372398 1.6875 39.25 C4.41001513 38.70642616 7.01364887 38.01395747 9.6875 37.25 C10.375 40.0625 10.375 40.0625 10.6875 43.25 C9.20532216 45.63795319 8.14840679 46.1365706 5.43359375 46.8046875 C-1.79534657 47.97694809 -9.14901934 48.39452188 -15.62890625 44.58203125 C-20.24315936 40.93131127 -23.07924709 35.96780893 -24.3125 30.25 C-25.31801608 21.49427534 -23.33399489 12.88554283 -18 5.75 C-12.50859272 0.64171416 -7.20151144 -0.21357587 0 0 Z " fill="#000000" transform="translate(1321.3125,331.75)"/>
<path d="M0 0 C13.86 0 27.72 0 42 0 C42 1.98 42 3.96 42 6 C36.06 6 30.12 6 24 6 C24 24.48 24 42.96 24 62 C22.02 62 20.04 62 18 62 C18 43.85 18 25.7 18 7 C12.06 7 6.12 7 0 7 C0 4.69 0 2.38 0 0 Z " fill="#000000" transform="translate(21,315)"/>
<path d="M0 0 C0 2.64 0 5.28 0 8 C-0.78375 7.67 -1.5675 7.34 -2.375 7 C-7.41125344 5.61068871 -12.98022277 4.53108957 -17.87109375 6.91015625 C-21.45570094 9.69023813 -23.60593975 12.74037147 -25 17 C-25.62416837 22.60210372 -25.77349004 27.33402145 -23.375 32.5 C-18.94136974 37.34792381 -18.94136974 37.34792381 -12.82421875 39.08984375 C-8.33695078 38.67505427 -4.21390639 37.62073323 0 36 C0.6875 38.8125 0.6875 38.8125 1 42 C-0.36732606 44.08697135 -1.36113811 44.79428937 -3.72265625 45.5546875 C-10.92270927 46.96258809 -18.91476406 47.17509867 -25.3515625 43.33203125 C-29.9257923 39.63579342 -32.7655423 34.72339479 -34 29 C-34.98920686 18.52500593 -32.18158855 12.05644704 -25.81640625 3.8828125 C-20.41338134 -1.71774235 -6.94494123 -3.47247061 0 0 Z " fill="#000000" transform="translate(1578,333)"/>
<path d="M0 0 C0 4.62 0 9.24 0 14 C3.63 14 7.26 14 11 14 C11 15.65 11 17.3 11 19 C7.7 19 4.4 19 1 19 C0.97287702 22.83338149 0.95310117 26.66656847 0.9375 30.5 C0.92912109 31.57765625 0.92074219 32.6553125 0.91210938 33.765625 C0.89430527 39.60537205 1.01878461 45.23621728 2 51 C3.00836062 52.23267348 3.00836062 52.23267348 5.06640625 52.09765625 C5.89011719 52.08605469 6.71382812 52.07445312 7.5625 52.0625 C8.38878906 52.05347656 9.21507812 52.04445313 10.06640625 52.03515625 C10.70449219 52.02355469 11.34257813 52.01195312 12 52 C11.34 54.31 10.68 56.62 10 59 C0.01627441 59.61967952 0.01627441 59.61967952 -3.5625 57.4375 C-9.96571321 46.57987761 -6.85642678 32.05114826 -6 20 C-7.7015625 20.0309375 -7.7015625 20.0309375 -9.4375 20.0625 C-13 20 -13 20 -14 19 C-14.04063832 17.33382885 -14.042721 15.66611905 -14 14 C-10.535 13.505 -10.535 13.505 -7 13 C-7 9.37 -7 5.74 -7 2 C-1.125 0 -1.125 0 0 0 Z " fill="#000000" transform="translate(711,319)"/>
<path d="M0 0 C1.22589844 0.01353516 1.22589844 0.01353516 2.4765625 0.02734375 C3.41628906 0.04474609 3.41628906 0.04474609 4.375 0.0625 C4.375 2.3725 4.375 4.6825 4.375 7.0625 C3.77171875 7.16046875 3.1684375 7.2584375 2.546875 7.359375 C1.74765625 7.50890625 0.9484375 7.6584375 0.125 7.8125 C-0.66390625 7.95171875 -1.4528125 8.0909375 -2.265625 8.234375 C-5.27724439 9.29143346 -6.64388959 10.57196119 -8.625 13.0625 C-11.99057172 22.87736926 -11.23851445 34.76977957 -11.625 45.0625 C-13.62454746 45.10504356 -15.62541636 45.10330783 -17.625 45.0625 C-19.76681645 42.92068355 -18.78923544 38.03672074 -18.79296875 35.06640625 C-18.79629715 34.1625267 -18.79962555 33.25864716 -18.80305481 32.32737732 C-18.80812796 30.41153473 -18.81046302 28.49568328 -18.81030273 26.57983398 C-18.81248813 23.64096582 -18.83063665 20.70247348 -18.84960938 17.76367188 C-18.85254337 15.90625129 -18.85452813 14.04882891 -18.85546875 12.19140625 C-18.86265427 11.30804092 -18.86983978 10.4246756 -18.87724304 9.51454163 C-18.85382139 3.29132139 -18.85382139 3.29132139 -16.625 1.0625 C-14 0.9375 -14 0.9375 -11.625 1.0625 C-11.295 2.3825 -10.965 3.7025 -10.625 5.0625 C-10.00625 4.423125 -9.3875 3.78375 -8.75 3.125 C-5.70483388 0.16939759 -4.12760769 -0.05896582 0 0 Z " fill="#000000" transform="translate(310.625,331.9375)"/>
<path d="M0 0 C0.66 2.31 1.32 4.62 2 7 C0.96939453 7.03867187 0.96939453 7.03867187 -0.08203125 7.078125 C-0.98308594 7.13484375 -1.88414063 7.1915625 -2.8125 7.25 C-3.70582031 7.29640625 -4.59914063 7.3428125 -5.51953125 7.390625 C-8.0445817 7.80964758 -8.0445817 7.80964758 -9.69921875 9.484375 C-13.48675434 16.8092186 -13.531576 25.49290646 -14.125 33.5625 C-14.21136719 34.66658203 -14.29773437 35.77066406 -14.38671875 36.90820312 C-14.59686521 39.60508267 -14.80116248 42.30226714 -15 45 C-16.98 45 -18.96 45 -21 45 C-21 30.48 -21 15.96 -21 1 C-19.02 1 -17.04 1 -15 1 C-15 2.32 -15 3.64 -15 5 C-14.01 4.175 -13.02 3.35 -12 2.5 C-7.86904411 -0.49895571 -4.99719798 -0.4383507 0 0 Z " fill="#000000" transform="translate(1474,332)"/>
<path d="M0 0 C0 1.98 0 3.96 0 6 C-0.67546875 6.13535156 -1.3509375 6.27070313 -2.046875 6.41015625 C-2.93890625 6.62542969 -3.8309375 6.84070313 -4.75 7.0625 C-5.63171875 7.25972656 -6.5134375 7.45695312 -7.421875 7.66015625 C-11.21502178 9.63144314 -12.72019266 12.04809801 -14 16 C-14.74994469 20.96193759 -15.01750775 25.92983498 -15.25 30.9375 C-15.32649072 32.30282691 -15.40460158 33.66806408 -15.484375 35.03320312 C-15.67217615 38.354936 -15.84351815 41.67666897 -16 45 C-18.97 45.495 -18.97 45.495 -22 46 C-22 31.15 -22 16.3 -22 1 C-20.02 1 -18.04 1 -16 1 C-15.67 2.32 -15.34 3.64 -15 5 C-14.195625 4.175 -13.39125 3.35 -12.5625 2.5 C-8.654055 -0.82733327 -4.90510679 -0.49051068 0 0 Z " fill="#000000" transform="translate(936,332)"/>
<path d="M0 0 C0 2.31 0 4.62 0 7 C-0.60328125 7.09796875 -1.2065625 7.1959375 -1.828125 7.296875 C-2.62734375 7.44640625 -3.4265625 7.5959375 -4.25 7.75 C-5.03890625 7.88921875 -5.8278125 8.0284375 -6.640625 8.171875 C-9.65224439 9.22893346 -11.01888959 10.50946119 -13 13 C-16.36557172 22.81486926 -15.61351445 34.70727957 -16 45 C-17.98 45 -19.96 45 -22 45 C-22 30.48 -22 15.96 -22 1 C-20.02 1 -18.04 1 -16 1 C-16 2.32 -16 3.64 -16 5 C-15.030625 4.175 -14.06125 3.35 -13.0625 2.5 C-8.79747008 -0.60263447 -5.10477099 -0.520895 0 0 Z " fill="#000000" transform="translate(86,332)"/>
<path d="M0 0 C0 2.31 0 4.62 0 7 C-0.67546875 7.07476562 -1.3509375 7.14953125 -2.046875 7.2265625 C-2.93890625 7.35804688 -3.8309375 7.48953125 -4.75 7.625 C-6.07257813 7.79902344 -6.07257813 7.79902344 -7.421875 7.9765625 C-11.13393466 9.4501377 -12.07188308 11.55010486 -14 15 C-14.7209857 18.46283066 -14.7209857 18.46283066 -14.828125 22.1484375 C-14.8668573 22.80582916 -14.9055896 23.46322083 -14.94549561 24.14053345 C-15.06402742 26.21817913 -15.15740948 28.29605339 -15.25 30.375 C-15.32645923 31.79305955 -15.40456842 33.21103115 -15.484375 34.62890625 C-15.67532986 38.08512738 -15.84377148 41.54201499 -16 45 C-17.98 45 -19.96 45 -22 45 C-22 30.48 -22 15.96 -22 1 C-20.02 1 -18.04 1 -16 1 C-15.67 1.99 -15.34 2.98 -15 4 C-14.01 3.34 -13.02 2.68 -12 2 C-7.8492018 -0.41068853 -4.72680045 -0.33170529 0 0 Z " fill="#000000" transform="translate(1294,332)"/>
<path d="M0 0 C1.98 0 3.96 0 6 0 C6 21.45 6 42.9 6 65 C3.03 65.495 3.03 65.495 0 66 C0 44.22 0 22.44 0 0 Z " fill="#000000" transform="translate(775,312)"/>
<path d="M0 0 C1.98 0 3.96 0 6 0 C6 21.45 6 42.9 6 65 C4.02 65 2.04 65 0 65 C0 43.55 0 22.1 0 0 Z " fill="#000000" transform="translate(1389,312)"/>
<path d="M0 0 C1.98 0 3.96 0 6 0 C6.89237854 14.48521601 7.18481485 28.50717551 6 43 C4.34385343 43.38218767 2.67542976 43.71395102 1 44 C0 43 0 43 -0.12025452 41.24729919 C-0.11803391 40.48562943 -0.11581329 39.72395966 -0.11352539 38.93920898 C-0.11344986 38.07839218 -0.11337433 37.21757538 -0.11329651 36.33067322 C-0.10813522 35.39526199 -0.10297394 34.45985077 -0.09765625 33.49609375 C-0.0962413 32.54307877 -0.09482635 31.59006378 -0.09336853 30.60816956 C-0.08775152 27.55124835 -0.07519616 24.49439923 -0.0625 21.4375 C-0.05748719 19.37044376 -0.05292391 17.30338638 -0.04882812 15.23632812 C-0.03777656 10.15752412 -0.02050055 5.0787743 0 0 Z " fill="#000000" transform="translate(1252,333)"/>
<path d="M0 0 C1.98 0 3.96 0 6 0 C6.19225812 5.92618557 6.37098213 11.85256525 6.53710938 17.77954102 C6.59555071 19.79625422 6.6577059 21.81286333 6.72363281 23.8293457 C6.81769006 26.72588145 6.89843632 29.62252751 6.9765625 32.51953125 C7.00875885 33.42274612 7.0409552 34.325961 7.0741272 35.25654602 C7.09429901 36.09719101 7.11447083 36.937836 7.13525391 37.80395508 C7.16856308 38.91315056 7.16856308 38.91315056 7.20254517 40.04475403 C7 42 7 42 5 45 C3.35 44.67 1.7 44.34 0 44 C0 29.48 0 14.96 0 0 Z " fill="#000000" transform="translate(850,333)"/>
<path d="M0 0 C1.98 0 3.96 0 6 0 C6 14.52 6 29.04 6 44 C4.02 44 2.04 44 0 44 C0 29.48 0 14.96 0 0 Z " fill="#000000" transform="translate(795,333)"/>
<path d="M0 0 C1.98 0 3.96 0 6 0 C6 14.52 6 29.04 6 44 C4.02 44 2.04 44 0 44 C0 29.48 0 14.96 0 0 Z " fill="#000000" transform="translate(683,333)"/>
<path d="M0 0 C1.98 0 3.96 0 6 0 C6 14.52 6 29.04 6 44 C4.02 44 2.04 44 0 44 C0 29.48 0 14.96 0 0 Z " fill="#000000" transform="translate(612,333)"/>
<path d="M0 0 C7.59 0 15.18 0 23 0 C23 1.98 23 3.96 23 6 C14.75 6 6.5 6 -2 6 C-1.34 4.02 -0.68 2.04 0 0 Z " fill="#000000" transform="translate(492,349)"/>
<path d="M0 0 C2.31 0 4.62 0 7 0 C8.125 1.75 8.125 1.75 9 4 C8.125 6.25 8.125 6.25 7 8 C4.125 8.1875 4.125 8.1875 1 8 C-1 5 -1 5 -0.625 2.3125 C-0.41875 1.549375 -0.2125 0.78625 0 0 Z " fill="#000000" transform="translate(611,314)"/>
<path d="M0 0 C2.375 -0.1875 2.375 -0.1875 5 0 C7.1519437 3.22791555 7.20086443 4.28400809 7 8 C1.25 9.125 1.25 9.125 -1 8 C-1.75 6.1875 -1.75 6.1875 -2 4 C-1.0625 1.75 -1.0625 1.75 0 0 Z " fill="#000000" transform="translate(1252,314)"/>
<path d="M0 0 C1.010625 0.0825 2.02125 0.165 3.0625 0.25 C5.0625 3.25 5.0625 3.25 4.75 5.375 C4.0625 7.25 4.0625 7.25 3.0625 8.25 C0.0625 8.375 0.0625 8.375 -2.9375 8.25 C-3.9375 7.25 -3.9375 7.25 -4.0625 4.25 C-3.89924377 0.33185053 -3.89924377 0.33185053 0 0 Z " fill="#000000" transform="translate(797.9375,313.75)"/>
<path d="M0 0 C3 0.125 3 0.125 4 1.125 C4.125 4.125 4.125 4.125 4 7.125 C3 8.125 3 8.125 -0.5625 8.1875 C-1.696875 8.166875 -2.83125 8.14625 -4 8.125 C-4.04241723 5.79205225 -4.04092937 3.45797433 -4 1.125 C-3 0.125 -3 0.125 0 0 Z " fill="#000000" transform="translate(853,313.875)"/>
<path d="M0 0 C2.64 0 5.28 0 8 0 C9.125 4.75 9.125 4.75 8 7 C4.625 7.125 4.625 7.125 1 7 C0.34 6.34 -0.32 5.68 -1 5 C-0.625 2.375 -0.625 2.375 0 0 Z " fill="#000000" transform="translate(682,315)"/>
</svg>
